<svg version="1.2" xmlns="http://www.w3.org/2000/svg" viewBox="0 0 579 579" width="579" height="579"><style>.a{fill:#fe5300}.b{fill:#fd5300}.c{fill:#ff5400}.d{fill:#fff}.e{fill:#9a4014}.f{fill:#9a4013}.g{fill:#92390f}.h{fill:#993d10}.i{fill:#f6f2f2}.j{fill:#9b3b0c}</style><path class="a" d="m305 72q0.5 1 1 2c1.9-0.3 1.9-0.3 3.9-0.6 4.5-0.5 8.2 0 12.6 1.1 3.1 0.6 6.1 0.9 9.2 1.2 21.3 3.1 42.9 13.3 62.3 22.3q0 1 0 2 1 0.3 2.1 0.7c3.1 1.4 5.5 3.1 8.3 5.2 1.7 1.3 1.7 1.3 4.6 2.1q1 1.5 2 3 2.5 1.5 5 3 1.6 1.3 3.1 2.6c2.7 2.5 2.7 2.5 5.9 3.4q1.8 2.1 3.5 4.2c2.8 3.3 6.2 6 9.5 8.8q-0.2 0.8-0.5 1.7c-2.6 10.6-2 21.5 2.7 31.4 0.8 1.9 0.8 1.9 0.8 3.9q1 0.5 2 1c1.2 2.6 2.2 5.2 3.3 7.9 2.4 6.3 5.2 12.2 8.6 18 1.1 2.1 1.1 2.1 1.1 5.1-8.8-1.1-8.8-1.1-11.8-4.9-1.1-1.6-1.1-1.6-2.2-3.1-2.7-2.4-2.7-2.4-6-3 0.7 3.8 1.7 7.4 3 11q2.5 0.5 5 1 0 1 0 2 1 0.5 2 1 1.5 1 3 2 0 1 0 2 0.9-0.2 1.8-0.5c2.2-0.5 2.2-0.5 6.2-0.5q0.5-1 1-2c2 3 2 3 4 6-3.9 3.6-7.1 4.8-12.2 6-5.4 1.3-10.3 2.9-15.2 5.4q-0.8 0.3-1.6 0.6c-2.3-1.2-3-2.2-4.6-4.3q-2.8-4-5.8-7.8c-0.6-0.8-0.6-0.8-1.2-1.7q-1.8-2.3-3.6-4.7c-1.8-2.5-1.8-2.5-1.8-4.5q-1 0-2 0c-1.8-2-3.4-4.1-5.1-6.2-2.2-2.1-3.8-2.5-6.9-2.8q-0.5 1-1 2 1 0 2 0 0.4 0.8 0.9 1.7c2.2 4 4.4 7.9 7 11.6 3.6 5.3 6.3 11 9.1 16.7q1 2 2 4-1 0.3-1.9 0.6c-4.5 1.3-8.8 2.7-13.1 4.6-3.7 1.5-7.6 2.5-11.5 3.7-7.3 2.3-14.5 4.9-21.6 7.7-14.4 5.4-14.4 5.4-17.9 5.4q-0.5 1-1 2c-2.7 1.1-5.5 2-8.2 2.9-2.8 1-2.8 1-4.9 2.8-1.9 1.3-1.9 1.3-5.4 0.7q-1-0.1-2.1-0.3c-5.8-0.2-11.5 2.8-16.9 4.8-6.7 2.5-12.9 3.5-19.6 0.6-3.9-2.2-6.5-5.1-9.3-8.6-1.7-2-3.5-3.3-5.6-4.9q-1.6-2.5-3-5-0.5-0.5-1-1-0.1-2.7-0.1-5.3 0-1.7 0-3.3 0-1.7 0-3.5 0-1.7 0.1-3.4 0-4.3 0-8.5-1-0.5-2-1c-0.3-6.2 0.5-10.3 3-16q1 0 2 0c0.3-1.4 0.3-1.4 0.7-2.8 1.6-3.8 2.7-4.3 6.3-6.2 3.2-2.7 5.2-5.2 6.9-8.9 2.1-4.5 4.8-7.6 9.1-10.1 3.9-0.7 3.9-0.7 5.9-0.8 2.3-0.2 4.1-0.9 6.3-1.7 4.9-1.8 9.8-2 15-2.3 2.9-0.1 2.9-0.1 5.8-1.2 3.2 1 5.4 1.8 7 4.9q0.4 1 0.9 2.1c1 2.4 1.6 3.7 3.9 5.1 2 0.7 4.1 1.3 6.2 1.9q1.9 0.8 3.8 1.6c2.4 1.1 4.6 1.9 7.2 2.4q0.4-1.2 0.8-2.4c1.2-2.6 1.2-2.6 2.9-3.5 2.3-0.1 2.3-0.1 5.2 0.9 5.1 1.5 10.3 1.5 15.5 1.6q1.6 0.1 3.1 0.1 3.8 0.2 7.5 0.3c0.3-4.6 0.7-9.2 1-14q-1 0-2 0 0-1 0-2c-2.5 1.4-2.5 1.4-5 3q0 1 0 2-1-0.4-1.9-0.8c-2.9-1.2-2.9-1.2-5.3-1.8-4.4-1.2-6.4-1.9-9.4-5.5-1.4-2.9-1.4-2.9-1.4-4.9q-3 0-6 0 0.5 2.2 0.9 4.4c0.3 1.2 0.3 1.2 0.6 2.4 0.4 2.2 0.4 2.2 1.5 4.2-2.9-0.3-2.9-0.3-6-1-1.2-1.9-1.2-1.9-2-4q-1-1-2-2c-1.6-2.3-3.1-4.7-4.6-7-1.3-2.1-1.3-2.1-3.4-3q0-1 0-2-1.3-0.4-2.6-0.8c-3.5-1.2-6.9-2.7-10.4-4.2q0 1.5 0 3 1 0.5 2 1 0.9 1 1.9 1.9c2 2 3.6 3 6.1 4.1q1.5 1 3 2c0.4 2.4 0.4 2.4 0 5-1.7 2.4-1.7 2.4-4 4-2.7-0.2-2.7-0.2-5-1q0-1 0-2 2-1 4-2 0-1 0-2-1.5-0.7-3-1.5-1.9-0.9-3.9-1.9-0.9-0.4-1.9-0.9c-2.8-1.4-5-2.5-7.2-4.7q-1.5 0-3 0-0.5 1-1 2-2.1 0.6-4.2 1.1c-5.5 1.7-7.9 5-10.8 9.9q-0.4 1.1-0.8 2.1c-2.1 3.4-5.7 3.7-9.4 4.5-4.3 0.6-6.2 0-9.8-2.6-1.6-4.4-0.8-8.4 0-13q1.2-0.2 2.5-0.4 1.6-0.3 3.3-0.5c1.6-0.3 1.6-0.3 3.3-0.6 2.9-0.4 2.9-0.4 5.9-1.5q0-3 0-6-1-0.5-2-1-1.5-1.5-3-3c3.4-1.5 5.2-2 9-2q0.5-1 1-2 3-2 6-4 0.8-0.9 1.7-1.7c1.3-1.3 1.3-1.3 4.3-1.3q0-3 0-6 1.5 0.5 3 1-0.5 2-1 4c6.7-0.8 13.3-1.9 20-3-0.1-1.4-0.1-1.4-0.2-2.9q0.1-1.5 0.2-3.1c3-2 3-2 7-2q-0.5-1-1-2c-2.4-0.5-2.4-0.5-5.1-0.6q-1.3-0.1-2.7-0.3-1.1 0-2.2-0.1 0-2.5 0-5-2 0.5-4 1c-1 3.7-1 6.3 0 10-1.6 1.3-3.3 2.6-5 4q-1-1-1.9-2c-3.7-2.4-5.8-2.3-10.1-2-2 0-2 0-4-1-0.6-2.6-0.6-2.6-1-5 2.2-1.7 4.2-3.1 6.6-4.4 2.5-1.4 2.5-1.4 3.2-3.6 1.7-2.8 3.8-3.5 6.8-4.5 8.8-1.9 17.1-0.1 25.7 2.2 4.3 1.2 4.3 1.2 8.7 0.3q2.8-0.3 5.7-0.6 1.5-0.1 3-0.2 1.1-0.1 2.3-0.2 0-1 0-2c-7.5-4.1-15.1-7.3-23.3-9.8q-3.3-1.1-6.6-2.3c-10.7-3.7-21.9-4.9-33.1-6.5q-3.7-0.5-7.4-1.1c-16.5-2.5-33.2-1.8-49.8 0q-1.6 0.2-3.3 0.4c-6.7 0.8-13.2 2.1-19.8 3.7-2.7 0.6-2.7 0.6-5.7 0.6q-0.5 1-1 2c-2 0.7-2 0.7-4.7 1.3-9.1 2.3-17.7 5.5-25.7 10.3-4.2 2.3-8.5 4.3-12.8 6.4-4.6 2.2-8.7 4.9-12.8 8 0.3 2 0.3 2 1 4 3.1 1.4 3.1 1.4 6.2-0.4q1.4-0.8 2.8-1.6 1.5 2 3 4c-5.4 5.1-9.7 6.5-17 7.5-5.8 1-10.4 3.6-14.1 8.1-1.2 2.5-1.2 2.5 0.1 5.4 2 1.2 2 1.2 4 2-0.5 3.4-1.1 6.7-2 10 3.1-0.3 4-1 6.1-3.3q1-1.4 2-2.8 1.9-2.5 3.9-4.9 1 0 2 0 0.5-1 1-2 1.2-1.2 2.5-2.4c2.7-2.4 2.7-2.4 3.5-5.6 4.1-4.2 7.4-4.6 13-5 1 3 1 3 2 6 3.5-1.4 3.5-1.4 7-3q0.1 1.4 0.3 2.9c0.4 3.2 0.4 3.2 2.8 4.5q0.9 0.3 1.9 0.6-1 2.5-2 5-1 0-2 0 0 1 0 2-1 0-2 0 0 1 0 2 2 1 4 2c-0.4 1.9-0.4 1.9-1 4-3 1.5-5.7 1.1-9 1 0.7-2 1.3-4 2-6-2.9 0-5.2 0.4-8.1 1-4.7 1-4.7 1-6.9 1q0.5 1.5 1 3 0.1 3.5 0 7 1.5-0.5 3-1 0 1 0 2c-5.7 3.8-10.2 4.7-17 5q0 1 0 2c-1.5 0.5-1.5 0.5-3 1q-0.9 1.1-1.7 2.3c-2.3 2.7-4.5 4-7.6 5.7-5 3-9.8 8.4-11.7 14q-1 0-2 0-0.3 0.9-0.7 1.7c-1.6 2.9-3.7 4.3-6.3 6.3q-0.5 1-1 2-1 0-2 0c-1.3 5.3-2.6 10.6-4 16q-1-0.5-2-1c-0.6-2-0.6-2-1.1-4.5-0.4-3-0.4-3-1.9-5.5-7.4 0.2-13.5 2.3-20 6q-0.5 1-1 2-1 0-2 0c-3.1 8-3.3 15.4-3 24 4-0.6 4-0.6 7.1-3.2 1.9-2.8 3.5-5.7 4.9-8.8q2 0 4 0c0.5 2.5 0.5 2.5 1 5q-1 0-2 0-1.1 5.5-2 11c2.3 0.7 4.6 1.3 7 2 0.8 4.7 1.1 9.2 1 14 3.2 2.1 6.3 2.5 10 2.4 3.3-0.7 5-2.9 7-5.4q1.5 0.5 3 1 0-1 0-2c6.7-1.4 15.8-2.1 22 1q0 1 0 2 0.8 0.3 1.6 0.7c2.4 1.3 2.4 1.3 4.9 3.7 3.7 3.2 8.1 4.3 12.7 5.7 4.1 1.3 6.2 2 8.6 5.7 1.3 3.4 1.4 4.8 0.2 8.2q-1 1.5-2 3c0.8-0.2 0.8-0.2 1.7-0.4 5.5-0.9 8.3-0.4 13 2.4 2.9 1.3 5.6 1.6 8.8 1.9 5.7 0.8 10.3 2.1 14.5 6.1 1.2 2.2 1.2 2.2 2 4-5.7 2-5.7 2-8 2q-0.5 1-1 2c-1.9 1-1.9 1-4.4 1.9q-1.3 0.6-2.7 1.1-1.3 0.6-2.8 1.1-1.4 0.6-2.8 1.2c-6.9 2.7-6.9 2.7-10.3 2.7q-0.5 1-1 2-1-0.5-2-1-0.5 1-1 2c-3 1-3 1-6 1q-0.5 1-1 2c-1.7 0.8-1.7 0.8-3.8 1.5-2.3 0.8-4.4 1.6-6.5 2.7-1.7 0.8-1.7 0.8-4.7 0.8q-0.5 1-1 2-2.6 1.4-5.2 2.6-1.5 0.6-2.9 1.3c-2.9 1.1-2.9 1.1-5.7 1.6q-1.1 0.3-2.2 0.5-0.5 1-1 2c-2.4 0.8-2.4 0.8-5 1-1.4-1.1-1.4-1.1-3-3q-1.4-1-2.8-2.1c-7-5.8-11-14.6-14.2-22.9q0-1 0-2-1-0.5-2-1c-1.2-3.3-1.2-6.6-1.3-10-0.1-1.5-0.1-1.5-0.1-3.1 0.5-3.6 1.8-4.6 4.4-6.9 1.1-3.4 1.1-6.1 1.1-9.7q-0.1-1.7-0.1-3.6 0-1.3 0-2.7c-2.3-0.8-3.6-1.1-6-0.4-2 0.4-2 0.4-3.9-0.6-3.5-3.2-5.5-5.5-7.1-10-2.3-2.1-4.4-3.2-7.2-4.5-2.8-1.5-2.8-1.5-3.8-4.5-1.6-0.2-1.6-0.2-3.3-0.3-3.7-0.7-3.7-0.7-5.6-2.1-1.1-1.6-1.1-1.6-1.1-3.6q-1.5 0-3 0c-0.5 30.1-0.5 30.1 2.7 60 0.4 2.7 0.4 5.3 0.3 8q1 0.5 2 1c0.7 2.2 0.7 2.2 1.4 5 1.4 5.3 3.2 10.1 5.6 15q0.5 1 0.9 1.9c3.4 8.1 3.4 8.1 8.1 15.1q0.1 2.5 0 5-7.5 2.5-15 5-3-6.5-5.9-13-1-2.2-2-4.4-1.5-3.2-2.9-6.3-0.5-1-1-2c-1.2-2.7-2.2-5.2-2.8-8.2q-0.2-1-0.4-2.1-1-0.5-2-1-1.3-2.4-2.4-4.8c-1.3-2.7-2.4-5-4.2-7.3-2.3-3.2-1.7-6-1.4-9.9q0.5-0.5 1-1 0-2 0-4c0-4 0-4 1-5q0.1-2 0.1-4.1c0.3-13.6 2.3-26.3 5.5-39.6 0.5-2.6 0.5-2.6 0.4-6.3q1 0 2 0-0.1-0.8-0.1-1.7c-0.2-4.9 0.3-8.6 2.2-13.1 1.7-4.3 2.7-8.8 3.9-13.2q1 0 2 0 0-2.5 0-5 1 0 2 0 0.5-1.8 1.1-3.6c3-9.2 7.8-18.3 12.9-26.4q1-0.5 2-1 1-2.5 2-5 1.7-2.6 3.6-5.2c2.4-3.3 2.4-3.3 4.4-6.8q1 0 2 0 0.4-0.9 0.8-1.8c1.2-2.2 2.5-3.8 4.2-5.6q0.9-1 1.9-1.9 0.9-1 1.9-2c4-4.3 8-8.6 11.8-13.2 1.5-1.6 3-2.9 4.7-4.3 2.7-1.9 2.7-1.9 3.7-4.2 2.7-1.7 5-3 8-4q0-1 0-2c1.5-1.2 1.5-1.2 3.4-2.5 2.8-1.8 2.8-1.8 4.6-4.5q3-1.5 6-3 0.7-0.7 1.4-1.4c2.1-2.1 4.4-3.3 7-4.7q1.5-0.8 2.9-1.6c2.7-1.3 2.7-1.3 5-1.9q0.8-0.2 1.7-0.4 0.5-1 1-2c13.8-8 13.8-8 20-8q0.5-1 1-2 2 0 4 0 0-1 0-2c31-9.9 59.6-13.2 92-14zm84 73q-0.5 2-1 4c-1.1-0.5-1.1-0.5-2.2-0.9-3.4-1.3-3.4-1.3-6.8-2.1-2.4 2-2.4 2-2.3 5.8 0.1 3.8 1 6.1 3.3 9.2q1.8-0.5 3.8-0.9 2.1-0.6 4.2-1.1 1-0.3 2-0.7c2.5-0.4 3.6 0.2 5.9 1.2 3.7 1.5 6.1 1.6 10.1 0.5q0-2 0-4c-2.4-1.9-2.4-1.9-5.5-3.5-3.1-1.7-3.1-1.7-5.5-3.5q0-2 0-4-3 0-6 0zm26 2q-0.5 1.5-1 3-1 0-2 0c1 4 2.8 5.8 5.9 8.4 4 3.2 5.5 5.8 7.1 10.6q1 0 2 0 0.5 1.5 1 3 2.5-0.5 5-1c-0.3-2.3-0.7-4.6-1-7q-1 0-2 0-0.4-1.2-0.7-2.4c-1.5-2.9-2.3-3.5-5.3-4.6q0-1 0-2-2.5-2.5-5-5-1-1.5-2-3-1 0-2 0z"/><path class="a" d="m481 255c7.2 6.5 9.4 17 12 26q0.5 1.3 0.9 2.6c4.4 13.3 2.4 27.7-0.4 41q-0.8 3.9-1.5 7.7c-2.5 12-5.6 23.7-9.4 35.4-0.5 1.5-0.5 1.5-1 3.1q-0.5 1.4-0.9 2.8c-0.8 2.5-0.8 2.5-0.7 5.4q-1 0-2 0-0.1 1.2-0.3 2.5c-0.8 4.1-2.4 7.5-4.3 11.1q-0.6 1.1-1.1 2.2c-4.9 9.4-10.2 18.3-16.5 26.8-1.4 1.9-2.8 3.8-4 5.8-1.8 2.7-3.7 5.2-5.8 7.6q-1 0-2 0-0.4 0.9-0.8 1.8c-3.1 5.9-8.1 10-13.2 14.2q-1.1 1.4-2.3 2.9c-15.9 19.3-47.9 35.8-71.7 42.1q-1.4 0.4-2.8 0.7-1.3 0.4-2.6 0.7c-3.5 1-6.9 2-10.3 3.3-4.2 1.5-7.8 1.5-12.3 1.3q-0.5 1-1 2c-2.9 0.6-2.9 0.6-6.7 1.1-1.8 0.3-1.8 0.3-3.7 0.5-3.6 0.4-3.6 0.4-6.9 0.4-2.7-0.2-2.7-0.2-4.7 1q-4.1 0.1-8.2 0-1.3 0-2.6 0-4-0.1-8.1-0.2-1.3 0-2.7 0c-13.2-0.4-25.6-1.3-38.4-4.8q-2.5-0.5-5-1-4.4-1-8.8-2.1-1.2-0.2-2.4-0.5-2.9-0.7-5.8-1.4 0-1 0-2-1.8-0.2-3.7-0.4c-15.1-1.5-31.1-13-43.7-20.8-4.5-2.8-9-5.3-13.6-7.8q0-1 0-2-1.5 0-3 0-2-2-4-4-2.8-1.9-5.7-3.7c-9.5-6.3-15.7-12.9-20.3-23.3q0-1 0-2-1-0.5-2-1-0.5-2.5-1-5-1-0.5-2-1-1.3-2.7-2.4-5.6c-1.5-3.7-3-7.4-4.9-11-1.7-3.4-1.7-3.4-1.7-6.4q-1-0.5-2-1c0.2-1.9 0.2-1.9 1-4 2.2-1.3 2.2-1.3 4.9-2.2q1.4-0.6 2.8-1.1c2.3-0.7 2.3-0.7 4.3-0.7 0.5-1 0.5-1 1-2q1.5 0 3 0 0-1 0-2 1.5 0 3 0 0.5-1 1-2 0.6 0.8 1.3 1.5c3.5 4.1 7 7.7 11.1 11.1 1.6 1.4 1.6 1.4 3.9 3.8 6.5 7 6.5 7 14.7 10.6q2.5 2.5 5 5 1 0 2 0 0 1 0 2c2.9 1.5 5.9 2.8 9 4q0 1 0 2 0.9 0.4 1.9 0.7c3.4 1.4 6.7 2.9 10 4.4 15.1 7.3 15.1 7.3 31.1 11.9q0 1 0 2c5.9 1 5.9 1 12 2q0 1 0 2c1.2 0.1 1.2 0.1 2.3 0.1 9.6 0.7 9.6 0.7 14 2 7.6 1.9 12.3 0.5 19.3-2.6 2.6-1.6 3.4-2.7 4.4-5.5q1.5 0.1 2.9 0.1c14.9 0.4 29.3-1.6 43.8-4.7 5.5-1 10.8-2 16.3-0.4q0.5-1 1-2 2 0.5 4 1 0.5-1 1-2c2.5-0.8 4.9-1.5 7.5-2.1q1.1-0.2 2.2-0.5c5.1-1.2 10.1-2 15.3-2.4-0.4 1.9-0.4 1.9-1 4q-1 0.5-2 1-0.5 1.5-1 3 1.3-0.5 2.6-1.1 1.6-0.7 3.3-1.4 1.6-0.7 3.3-1.4c2.8-1.1 2.8-1.1 4.8-1.1q0.5-1 1-2 2.2-1.2 4.6-2.4c11.9-6.3 22.7-15.3 32.4-24.6q1-1 2.1-2c3.7-3.5 3.7-3.5 5.9-8q1 0 2 0 0-1 0-2 2.5-2.5 5-5c1.7-2 3.3-4 4.9-6.1q0.7-0.9 1.4-1.7c3.3-4.5 6-9.1 8.5-14.2 1.2-2 1.2-2 3.2-3q1.1-2.5 2-5c2.7-6.8 2.7-6.8 5-8 0.7-2 1.4-4 2-6 1.8-5.7 3.8-11.2 5.9-16.8 5-12.9 5-12.9 8.1-26.2q0.2-1.4 0.5-2.8 0.2-1.4 0.4-2.9 0.6-3.2 1.1-6.4 0.3-1.6 0.5-3.3c0.3-1.6 0.3-1.6 0.6-3.2q0.2-1.4 0.4-2.8 0.5-2.4 1.1-4.8c0.6-2.5 0.5-4.9 0.5-7.5-0.1-1.5-0.1-1.5-0.1-3q0-1.2 0-2.3 1 0 2 0 0-3 0-6z"/><path class="a" d="m472 222c2.8 2.8 3.5 6 4.6 9.6q0.4 1.1 0.7 2.2 0.9 2.6 1.7 5.2c-2.8 2.3-5.2 3.5-8.7 4.5-8.2 2.3-16.2 5.2-24.3 8q-7.4 2.6-14.9 5.2-1.1 0.3-2.1 0.7c-2 0.6-2 0.6-5.5 1.2q-1.2 0.2-2.5 0.4-0.5 1-1 2c-2.1 0.4-4.1 0.5-6.2 0.7q-0.9 0.1-1.8 0.3-0.5 1-1 2c-1.8 0.6-1.8 0.6-4.1 1.3-5.4 1.4-10.4 3.4-15.5 5.6-3.1 1.4-5.9 2.2-9.3 2.7q-1.5 0.2-3.1 0.4-0.5 1-1 2c-2.3 0.6-4.6 1-7 1.4q-1 0.3-2 0.6-0.5 1-1 2-3.5 0.5-7 1-0.5 1-1 2c-2.3 0.6-4.6 1-7 1.4q-1 0.3-2 0.6-0.5 1-1 2c-2.1 0.8-2.1 0.8-4.8 1.5-2.6 0.7-4.9 1.3-7.3 2.6-1.9 0.9-1.9 0.9-5.9 0.9q-0.5 1-1 2c-2.1 0.7-2.1 0.7-4.7 1.4-3.2 0.9-5.8 1.8-8.8 3.4q-1.2 0.6-2.5 1.2-1-0.5-2-1-0.5 1-1 2c-2.3 1-2.3 1-5.2 2-2.9 1-5.7 2-8.5 3.1-2.3 0.9-2.3 0.9-5.3 0.9q-0.5 1-1 2c-2.5 1.1-5 2-7.6 2.9-5.2 1.9-10.3 3.9-15.4 6.1q-3.4 1.4-6.7 2.7-1.7 0.6-3.4 1.3c-2.9 1-2.9 1-5.9 1q-0.5 1-1 2c-2.5 1.1-4.9 2-7.4 2.9q-1.1 0.4-2.2 0.8c-4.9 1.8-9.7 3.4-14.7 4.7-1.9 0.5-1.9 0.5-2.7 2.6-2.6 1.2-5.2 2.3-7.8 3.3q-2.3 0.9-4.7 1.9-1.1 0.4-2.3 0.9-4.5 1.8-8.9 3.7-3.9 1.7-7.9 3.2-3.3 1.4-6.6 2.9-1.2 0.5-2.4 1-2.3 1.1-4.6 2.1c-14.4 6.5-14.4 6.5-19 7.5q-0.9 0.2-1.8 0.5-0.5 1-1 2c-2.3 0.6-4.6 1-7 1.4q-1 0.3-2 0.6-0.5 1-1 2-2.6 1.3-5.3 2.4-1.6 0.6-3.2 1.3-1.7 0.7-3.4 1.4-1.7 0.7-3.4 1.4c-8.4 3.5-8.4 3.5-10.7 3.5q-0.5 1-1 2c-2.6 1.3-5.2 2.5-7.8 3.7q-1.1 0.5-2.2 1-1.1 0.5-2.1 0.9c-1 0.5-1 0.5-2 0.9-2.4 0.6-3.6 0.4-5.9-0.5-1.7-2.8-1.7-2.8-3.2-6.4q-0.8-1.7-1.6-3.5c-1.2-3.1-1.2-3.1-1.2-6.1q1.4-0.2 2.9-0.4 1.5-0.3 3.1-0.6c0.5-1 0.5-1 1-2 1.9-1 1.9-1 4.3-2q1.2-0.5 2.4-1 1.1-0.5 2.3-1c1.5-0.6 1.5-0.6 2.9-1.2 2.1-0.8 2.1-0.8 4.1-0.8q0.5-1 1-2 2.8-1.3 5.6-2.4c3.5-1.4 6.9-2.8 10.3-4.3 3-1.3 5.8-1.9 9.1-2.3q0-1 0-2c1.2-0.5 1.2-0.5 2.5-1 9-3.5 17.8-7.4 26.6-11.5 5.2-2.4 10.4-4.4 16-5.8 2.1-0.5 2.1-0.5 2.9-2.7q2.9-1.2 5.9-2.1 1.7-0.6 3.3-1.1c2.8-0.8 2.8-0.8 4.8-0.8q0.5-1 1-2 2.8-1.2 5.6-2.2c7.1-2.7 14-5.6 21-8.6q3-1.3 6-2.6c6.4-2.8 6.4-2.8 12.7-5.7 2-1.1 4-1.6 6.3-2.2 4.7-1.4 8.9-3.2 13.3-5.3 25-11.4 25-11.4 32.1-11.4q0.5-1 1-2c2.3-1 2.3-1 5.3-2 4.2-1.5 4.2-1.5 8.3-3.1 2.4-0.9 2.4-0.9 6.4-0.9q0.5-1 1-2c2.5-1 4.9-1.8 7.4-2.6q1-0.4 2.1-0.7c2.9-1 5.4-1.7 8.5-1.7q0.5-1 1-2c2.2-0.7 2.2-0.7 5-1.4 4.4-1.1 8.4-2.6 12.5-4.5 4.3-1.9 8.8-3.4 13.2-4.9q3.8-1.4 7.6-2.9c3.6-1.3 7.1-2.1 10.9-2.8q0.9-0.2 1.8-0.5 0.5-1 1-2c1.7-0.6 1.7-0.6 4-1.2 5.8-1.7 11.5-3.7 17.2-5.8 3.1-1.1 5.5-2 8.8-2q0.5-1 1-2c1.8-0.7 1.8-0.7 4.1-1.4 1.3-0.3 1.3-0.3 2.5-0.7q1.4-0.4 2.8-0.8c6.5-1.9 12.9-3.8 19.2-6.2 10.6-3.9 10.6-3.9 15.4-3.9q0-1 0-2z"/><path class="a" d="m429 269c0.5 1 0.5 1 1 2q-1 0-2 0c-2.2 8.4-3.2 15.7-2.4 24.3 0.6 7 0.5 12.7-3.6 18.7-1.9 2.1-3.6 3.4-6 5q-1 0-2 0c-1.8 3.3-2.7 6.4-3.6 10.1-2 8.6-2 8.6-4.8 10.8-2.6 1.8-2.6 1.8-3.6 4.1-1.4 2.8-3.6 4.1-6 6q-1.2 1.5-2.5 3c-5.7 6.8-12.4 9.7-20.9 11.9-3 0.1-4.3 0.1-6.6-1.9-0.7-3.5-0.7-3.5-1-7q-0.5-1-1-2 0-2.5 0-5-0.5-1-1-2-0.2-3.5-0.4-6.9c-0.2-4.8-0.7-9.2-2.2-13.7-1.9-6.1-1.7-12.1-1.4-18.4q1 0 2 0c0.3-4.9 0.7-9.9 1-15q4.5-1.7 8.9-3.3c1.3-0.5 1.3-0.5 2.6-0.9q7.2-2.7 14.5-5.1c2.1-0.7 4.2-1.6 6.4-2.4 3.6-1.3 3.6-1.3 6.6-1.3q0-1 0-2c1.3-0.2 1.3-0.2 2.6-0.4q1.6-0.2 3.3-0.5 1.7-0.2 3.4-0.5 1.3-0.3 2.7-0.6 0.5-1 1-2c2.5-1 5-1.8 7.6-2.6q1-0.4 2.1-0.7 2.7-0.9 5.3-1.7z"/><path class="a" d="m58 307c1.4 2.8 1.4 2.8 2.7 6q0.6 1.6 1.3 3.3c1 2.7 1 2.7 1 4.7q1 0.5 2 1 0.5 3 1 6 1 0.5 2 1c0.8 1.8 0.8 1.8 1.7 4.1q0.4 1.3 0.9 2.6c0.4 1.3 0.4 1.3 0.9 2.7q0.9 2.6 1.8 5.2c0.4 1.1 0.4 1.1 0.9 2.3 0.8 2.3 0.8 2.3 2.8 5.1 0.1 2.7 0.1 2.7 0 5 1 0.5 1 0.5 2 1 0.6 2.3 1 4.6 1.4 7q0.3 1 0.6 2c1 0.5 1 0.5 2 1 0.6 2.3 1 4.6 1.4 7q0.3 1 0.6 2c1 0.5 1 0.5 2 1 1.3 2.2 1.3 2.2 2.6 4.9q0.7 1.3 1.4 2.7c1 2.4 1 2.4 1 5.4 1 0.5 1 0.5 2 1q1 3 2 6c1 0.5 1 0.5 2 1 3 5.4 3 5.4 3 8 1 0.5 1 0.5 2 1q0 1.5 0 3 1 0.5 2 1c1.4 2.5 2.7 5.1 3.9 7.7q0.6 1 1.1 2.1 1 2.1 2 4.2 1.4 2.7 2.8 5.4c1.2 2.6 1.2 2.6 1.2 4.6q1 0 2 0 0 2 0 4 1 0.5 2 1c1 1.6 1 1.6 2.2 3.8 2.6 4.9 5.4 9.6 8.2 14.4 3.3 5.9 4 9.2 2.6 15.8-3 2-3 2-6 2q-0.5 1-1 2c-2.1 1-2.1 1-5 1-5.8-3.1-9.3-7.1-12-13q0-1 0-2-1-0.5-2-1-1.5-2.7-2.7-5.4c-2-4.1-4.1-8-6.4-11.9-6.9-11.2-6.9-11.2-6.9-15.7-1-0.5-1-0.5-2-1-1.2-2.1-2.3-4.3-3.4-6.5-0.5-1-0.5-1-1-2.1-4.9-9.9-9.6-19.9-14.4-29.8q-1.5-3.1-3-6.2c-1.2-2.5-1.7-4.7-2.2-7.4q-1-0.5-2-1c-0.9-1.7-0.9-1.7-1.8-3.9q-2.3-5.4-4.9-10.8c-1.7-3.8-2.8-7.1-3.3-11.3q-1-0.5-2-1c-0.9-1.9-0.9-1.9-1.9-4.4q-2.6-6.8-5.4-13.4c-0.7-2.2-0.7-2.2-0.7-6.2q-1-0.5-2-1c-1.3-4.3-2-8.5-2-13 1.8-3.3 4.5-4.4 8-5.8 7.3-0.7 7.3-0.7 11 1.8z"/><path class="a" d="m460.6 139.6c6.3 3.7 9.2 11.3 12.5 17.7q0.8 1.4 1.6 3c2.7 5.2 5 10.3 6.7 16 0.5 1.9 0.5 1.9 2.6 2.7 1.3 2.4 2.6 4.8 3.8 7.3q0.5 1.1 1.1 2.2c2.5 5.2 4.8 10.4 7 15.8 1 2.6 2.3 5.1 3.5 7.6 8.6 16.7 8.6 16.7 8.6 21.1 1 0.5 1 0.5 2 1q1.3 2.7 2.4 5.5c1.8 4.6 3.8 9.2 5.9 13.7 0.7 1.8 0.7 1.8 0.7 4.8q1 0.5 2 1c3 6.2 3 6.2 3 10q1 0.5 2 1c1.2 2.6 2.3 5.2 3.4 7.9q0.4 1.1 0.9 2.3 0.9 2.3 1.9 4.7 1 2.6 2.1 5.3c2.6 6.4 3.2 11.9 2.7 18.8q-2.3 1.3-4.7 2.5-1.3 0.7-2.6 1.4c-2.8 1.1-4.7 1.3-7.7 1.1q-0.2-1-0.4-1.9-0.3-1.1-0.6-2.1-1-0.5-2-1-0.5-2.5-1-5-1-0.5-2-1c-1.1-2.3-2.1-4.6-3.1-6.9q-0.4-1-0.9-2c-2-4.8-2-4.8-2-7.1q-1-0.5-2-1c-1-2.4-1.9-4.7-2.8-7.1q-0.7-2.2-1.5-4.4-0.4-1.1-0.9-2.2c-1.5-4.3-3.2-8.4-5-12.6-1.8-4.5-1.8-4.5-1.8-6.7-1-0.5-1-0.5-2-1-0.9-2.5-0.9-2.5-1.6-5.6q-0.4-1.5-0.8-3-0.3-1.2-0.6-2.4-1 0-2 0-0.2-1.4-0.4-2.9-0.3-1.5-0.6-3.1c-1-0.5-1-0.5-2-1-1.1-2-1.1-2-2.1-4.4q-0.6-1.2-1.1-2.4c-0.8-2.2-0.8-2.2-0.8-5.2-1-0.5-1-0.5-2-1-1-1.6-1-1.6-1.9-3.7-0.6-1.2-0.6-1.2-1.1-2.3q-0.6-1.2-1.1-2.4-0.6-1.2-1.2-2.4c-2.7-5.9-2.7-5.9-2.7-8.2q-1-0.5-2-1c-1.3-2.3-2.4-4.7-3.6-7.1-3.2-6.6-6.7-13.1-10.4-19.5-2.2-3.7-3.7-7.3-5-11.4q-1-2.4-2.1-4.9c-1.8-4.4-2.5-8.3-2.9-13.1 10.7-6.3 10.7-6.3 14.6-5.4z"/><path class="a" d="m497 146c2.3 1.9 2.3 1.9 4 4q0 1.5 0 3 1 0.5 2 1 1 3.5 2 7 1 0.5 2 1c1.1 2.2 1.1 2.2 2.1 4.9q0.6 1.3 1.1 2.7c0.8 2.4 0.8 2.4 0.8 5.4q1 0.5 2 1 1.6 3.1 3.1 6.2 0.7 1.8 1.6 3.5c1.1 2.8 1.8 5.3 2.3 8.3q1 0 2 0 0.2 1.4 0.4 2.9 0.3 1.5 0.6 3.1c1 0.5 1 0.5 2 1q1.2 2.5 2.1 5c2.5 6.2 5.4 12.3 8.3 18.3 2.6 5.4 2.6 5.4 2.6 8.7 1 0.5 1 0.5 2 1 0.9 1.7 0.9 1.7 1.8 3.9q2.3 5.3 4.7 10.5 2.5 5.5 4.8 11 0.5 1.2 1 2.4c0.7 2.2 0.7 2.2 0.7 6.2q1 0.5 2 1c1.5 7 1.5 7-0.3 10.5-1.7 1.5-1.7 1.5-3.7 1.5q-0.5 1-1 2c-3.5 1.7-6.2 2.2-10 2q-0.4-1-0.8-2.1-1.2-3-2.5-6-0.4-0.8-0.8-1.7-1.1-2.6-2.2-5.2c-0.7-1.6-0.7-1.6-1.4-3.3q-0.6-1.5-1.3-3c-1-2.7-1-2.7-1-5.7-1-0.5-1-0.5-2-1-0.9-1.6-0.9-1.6-1.7-3.7q-0.5-1.2-1-2.3-0.4-1.2-0.9-2.4c-0.5-1.2-0.5-1.2-1-2.4-2.4-5.9-2.4-5.9-2.4-8.2-1-0.5-1-0.5-2-1-0.8-1.7-0.8-1.7-1.5-3.8-1-2.9-2.1-5.5-3.5-8.2q-1.1-2.5-2.2-5-2.9-6.2-5.8-12.3-0.8-1.6-1.6-3.2-1.6-3.3-3.2-6.5c-4.3-8.9-4.3-8.9-5.4-13.2q-0.4-1.4-0.8-2.8-1-0.5-2-1-1.4-2.7-2.6-5.4c-0.7-1.5-0.7-1.5-1.4-3-1-2.6-1-2.6-1-4.6q-1-0.5-2-1c-0.5-2.5-0.5-2.5-1-5q-1-0.5-2-1c-3-6-3-6-2.9-9.1 1.4-2.9 3.3-3.4 6.1-4.7 1.5-0.7 1.5-0.7 2.9-1.3 3.2-1 4.8-0.9 7.9 0.1z"/><path class="a" d="m39 334q0.2 1.7 0.4 3.4 0.3 1.8 0.6 3.6 1 0.5 2 1 0.5 3.5 1 7 1 0.5 2 1-0.5 1-1 2 1 0.5 2 1 0.5 3 1 6 1 0.5 2 1c0.8 1.7 0.8 1.7 1.6 4.1 1.9 4.8 4.1 9.4 6.5 14 2.5 4.9 4.6 9.6 6.2 14.9 1.1 3.2 2.9 6.1 4.7 9.1 1 1.9 1 1.9 1 4.9 1 0.5 1 0.5 2 1 3.1 5.7 5.5 11.7 7 18q1 0 2 0 0.6 1.4 1.1 2.8c2 4.6 4.4 9.1 6.7 13.6 1.2 2.6 1.2 2.6 1.2 4.6q1 0.5 2 1 0.5 2.5 1 5 1 0.5 2 1c1.3 1.9 1.3 1.9 2.7 4.3q0.7 1.2 1.4 2.4c0.9 2.3 0.9 2.3 0.8 4.5-1.7 3.5-5.3 4.5-8.9 5.8-3.6 0.8-3.6 0.8-7 0-7.2-6.2-11-16.6-15-25q-0.5-1.2-1.1-2.3c-3-6.4-3-6.4-4.3-9.2-1.4-3-2.8-5.7-4.6-8.5q0-1.5 0-3c-1-0.5-1-0.5-2-1-1-1.9-1-1.9-2.1-4.3q-0.6-1.3-1.2-2.7-0.6-1.3-1.3-2.7-0.6-1.4-1.2-2.8c-3.1-6.9-3.1-6.9-3.7-10.2q-0.2-1.2-0.5-2.3-1-0.5-2-1-1.1-2.5-2-5-0.8-1.8-1.7-3.7c-0.5-0.9-0.5-0.9-1-1.9q-0.9-2-1.9-4c-1.4-3-2.4-5.1-2.4-8.4q-1-0.5-2-1c-1.8-3.6-3.1-7.3-4.6-11.1q-0.6-1.5-1.2-3.1c-2.2-5.6-4-10.7-4.2-16.8 2.9-4.8 10.6-8.8 16-7z"/><path class="a" d="m532 166c7.6 7.3 12.4 19 15 29q1.3-0.5 2.6-1.1 1.6-0.7 3.3-1.4 1.6-0.7 3.3-1.4c2.8-1.1 2.8-1.1 4.8-1.1q0.5-1 1-2c3.8-1.5 8-1.1 12-1 5.7 10.4 5.7 10.4 5 16-6.6 3-6.6 3-10 3-0.5 1-0.5 1-1 2-2.3 1.1-2.3 1.1-5.1 2.1q-1.3 0.6-2.7 1.1c-1.1 0.4-1.1 0.4-2.2 0.8 0.5 4 1.1 7.9 1.9 11.9 0.3 1.1 0.3 1.1 0.5 2.3q0.3 0.9 0.6 1.8c1 0.5 1 0.5 2 1 0.7 2.2 0.7 2.2 1.2 4.9q0.3 1.3 0.5 2.7c0.3 2.4 0.3 2.4-0.7 5.4-2.2 1.2-2.2 1.2-4.9 2.2q-1.4 0.5-2.8 1c-2.3 0.8-2.3 0.8-4.3 0.8q0-1 0-2c-1-0.5-1-0.5-2-1-0.9-2.1-0.9-2.1-1.8-4.8-1.9-5.4-4-10.6-6.2-15.8-1-2.4-1-2.4-1-4.4q-1-0.5-2-1c-1-2.1-1-2.1-2.1-4.8q-0.5-1.3-1-2.7c-0.9-2.5-0.9-2.5-1.4-4.8q-0.2-0.8-0.5-1.7-1-0.5-2-1-1.1-2.5-2-5c-2.7-7-5.7-13.4-9.7-19.8-1.5-2.6-2.5-5.3-3.3-8.2q1.2-0.2 2.4-0.4 1.3-0.3 2.6-0.6 0.5-1 1-2c3.3-1.3 5.7-1.3 9 0z"/><path class="a" d="m23.1 369.9c1.4 0.1 1.4 0.1 2.9 0.1q1.8 3.9 3.5 7.8 0.5 1.1 1 2.2 0.5 1.1 1 2.2c0.4 1 0.4 1 0.9 2 0.6 1.8 0.6 1.8 0.6 4.8q1 0.5 2 1c0.8 1.8 0.8 1.8 1.7 4.1 2 5.3 4.4 10.4 6.8 15.5 2 4.1 3.4 8 4.5 12.4q1 0 2 0c0.2 0.8 0.2 0.8 0.4 1.7 0.2 1.1 0.2 1.1 0.5 2.2q0.2 1.1 0.5 2.3c0.4 2 0.4 2 2.6 2.8q1.7 3.2 3.1 6.6 0.8 1.7 1.7 3.6 0.6 1.4 1.2 2.8-2.3 1.6-4.7 3.1-1.3 0.8-2.6 1.7c-3.2 1.4-4.5 1.3-7.7 0.2-3-3.2-3-3.2-3-6-1-0.5-1-0.5-2-1-1.1-2-1.1-2-2.1-4.4q-0.6-1.2-1.1-2.4c-0.8-2.2-0.8-2.2-0.8-5.2-1-0.5-1-0.5-2-1-0.6-2.1-0.6-2.1-1-4-1.6 0.5-1.6 0.5-3.3 1-3.7 1-3.7 1-7.7 1q-0.5 1-1 2c-2.3 1.1-2.3 1.1-5.3 2.2q-1.4 0.5-2.8 1.1c-3.2 0.8-4.9 0.8-7.9-0.3-2.8-3.3-3.9-7.5-4.8-11.7 0.9-3.6 1.1-4 3.9-5.9 5.1-2.8 10.6-4.5 16-6.3 3-0.8 3-0.8 3.9-3.1q-1-0.5-2-1c-1.1-2.6-2-5.1-2.9-7.7-1.5-4-2.8-7.8-4.8-11.6-1.6-3.4-1.5-6-1.3-9.7q1.2-0.4 2.4-0.9c2.7-0.8 2.7-0.8 3.6-3.1 1-1 1-1 4.1-1.1z"/><path class="a" d="m216 353c-0.3 6.9-0.7 13.9-1 21q-1 0-2 0c0.5 1.5 0.5 1.5 1 3q-1 0-2 0 0 2 0 4c-3 0.7-5.9 1.3-9 2q1 2 2 4c0.1 2.8 0.1 2.8 0 5-3.5 0.5-3.5 0.5-7 1q0 2 0 4 1 0.5 2 1 0.5 3 1 6 1 0.5 2 1 0.5 2 1 4c2.4 5.8 4.6 10.4 10 14 1 1.5 1 1.5 2 3-4.4 0.4-6.4-0.6-10-3q-0.9-0.3-1.8-0.7c-7-2.9-10.8-8.3-15.2-14.3q-0.9-1.2-1.8-2.4c-7.7-10.2-13.7-22.1-16.2-34.6q3.5-2 7.1-3.9 0.9-0.6 2-1.2c4.3-2.4 7.9-3.3 12.9-3.9q0.5-1 1-2 2.8-1.3 5.6-2.4c3.5-1.4 7-2.9 10.5-4.5 2.9-1.1 2.9-1.1 5.9-0.1z"/><path class="a" d="m294 96q-0.8 0.3-1.6 0.7c-4.7 2.2-7.7 4.5-11.4 8.3-4.4 2.5-8.9 4.1-13.7 5.7q-1 0.3-2 0.7c-2.9 0.9-5.2 1.6-8.3 1.6q-0.5 1-1 2-3.5 1.1-7 2 0 1 0 2c-2.1 1.4-2.1 1.4-5 3q-1.5 0.9-3 1.7c-3 1.3-3 1.3-5.8 1.3-2.2-1-2.2-1-3.6-3.3-0.6-2.8-0.6-4.1 0.4-6.7q1 0 2 0 0-1 0-2 1 0 2 0 0-1 0-2 1.5-1 3-2-0.5-3-1-6c-2.3 0-4.6 0-7 0 1-2 1-2 2.9-2.7q1.3-0.3 2.6-0.6 1.3-0.3 2.8-0.6 1.4-0.3 3-0.7 1.4-0.3 3-0.6c7.3-1.6 14.2-2.5 21.7-2.8q2.5-0.3 5-0.6c16.7-1.7 16.7-1.7 22 1.6z"/><path class="b" d="m444 303q0.5 0 1 0c0.4 6.6-0.9 11.8-3 18q-1 0-2 0 0 2 0 4-1 0-2 0 0 2 0 4-1 0-2 0-0.5 2.5-1 5-1 0-2 0c-0.3 0.9-0.3 0.9-0.7 1.9-1.7 2.7-3.3 3.2-6.3 4.1-1.7-3.5-0.7-7.3 0-11 2.2-4.6 2.2-4.6 5-6q0-1.7-0.1-3.4c0.4-4.7 3.2-7 6.6-10q1.5-1.2 3-2.5c2.5-1.9 2.5-1.9 3.5-4.1z"/><path class="a" d="m216.9 114.5q1 0.7 2.1 1.5c-0.4 2.7-0.8 3.9-2.9 5.8-4.2 3.2-8.2 6.1-13.1 8.2q-2-1.5-4-3c0.6-3.3 1.5-4.8 4-7q-1-1-2-2c-2.3 0.7-4.6 1.3-7 2q-0.5-2.5-1-5c7.2-2.7 17-4.1 23.9-0.5z"/><path class="a" d="m128 226c8.6 2.5 8.6 2.5 12.4 5.2 2.5 2.1 2.5 2.1 5.6 1.8q0 1 0 2c2.5 0.5 2.5 0.5 5 1q-0.5 1.5-1 3c-3 0-5.9 0-9 0q0-2 0-4c-2.9 1.3-4.9 2.7-7 5q-1-0.5-2-1 1.5-0.5 3-1c-1.2-3.6-1.2-3.6-4-6-3.6-0.3-3.6-0.3-7 0q0.5-2 1-4 1.5 0 3 0 0-1 0-2z"/><path class="b" d="m307 125c3.8 1.3 4 2.6 6 6q1.9 2.1 4 4-1 2-2 4c-2.3 0-4.6 0-7 0q0-3 0-6-1.5-0.5-3-1-0.5-2.5-1-5 1.5-1 3-2z"/><path class="b" d="m291 113q1 1 2 2c-4 1.8-7.4 2.4-11.8 2.6-1.8 0.1-1.8 0.1-3.5 0.3-1.4 0-1.4 0-2.7 0.1q0-1 0-2-1-0.5-2-1c5.5-3.7 11.7-3.4 18-2z"/><path class="c" d="m302 131q0.5 2.5 1 5c-3.2 2.2-4.3 2.2-8 2q-0.5-2-1-4c5.8-3 5.8-3 8-3z"/><path class="c" d="m336 160q1 0 2 0 0.5 3 1 6-2-1-4-2 0.5-2 1-4z"/><path class="d" d="m216 351c2 1 2 1 2 1z"/><path class="e" d=""/><path class="f" d=""/><path class="d" d=""/><path class="d" d=""/><path class="g" d=""/><path class="d" d=""/><path class="d" d=""/><path class="h" d=""/><path class="i" d=""/><path class="d" d=""/><path class="j" d=""/></svg>