<?xml version="1.0" encoding="UTF-8"?>
<!-- Generator: visioncortex VTracer 0.6.4 -->
<svg version="1.1" xmlns="http://www.w3.org/2000/svg" width="579" height="435">
<path d="M0 0 C0.33 0.66 0.66 1.32 1 2 C2.918125 1.690625 2.918125 1.690625 4.875 1.375 C9.3926 0.865177 13.118587 1.437462 17.519531 2.460938 C20.569892 3.123851 23.590786 3.414818 26.699219 3.65625 C48.038496 6.844461 69.59513 17.019743 89 26 C89 26.66 89 27.32 89 28 C89.680625 28.226875 90.36125 28.45375 91.0625 28.6875 C94.191638 30.085625 96.639234 31.810909 99.351562 33.878906 C101.120603 35.191323 101.120603 35.191323 104 36 C104.66 36.99 105.32 37.98 106 39 C107.658482 40.013517 109.32666 41.011208 111 42 C112.055016 42.858857 113.096452 43.734616 114.125 44.625 C116.816709 47.139125 116.816709 47.139125 120 48 C121.167018 49.400422 122.329788 50.804824 123.460938 52.234375 C126.310157 55.503022 129.684036 58.218869 133 61 C132.844023 61.547852 132.688047 62.095703 132.527344 62.660156 C129.914201 73.303088 130.471054 84.182274 135.160156 94.144531 C136 96 136 96 136 98 C136.66 98.33 137.32 98.66 138 99 C139.154366 101.6122 140.221183 104.213809 141.25 106.875 C143.741283 113.160923 146.477221 119.068628 149.933594 124.898438 C151 127 151 127 151 130 C142.206827 128.88888 142.206827 128.88888 139.1875 125.0625 C138.104687 123.546562 138.104687 123.546562 137 122 C134.347853 119.562955 134.347853 119.562955 131 119 C131.671708 122.806346 132.727466 126.352068 134 130 C135.65 130.33 137.3 130.66 139 131 C139 131.66 139 132.32 139 133 C139.66 133.33 140.32 133.66 141 134 C141.99 134.66 142.98 135.32 144 136 C144 136.66 144 137.32 144 138 C144.5775 137.835 145.155 137.67 145.75 137.5 C148 137 148 137 152 137 C152.33 136.34 152.66 135.68 153 135 C154.98 137.97 154.98 137.97 157 141 C153.104411 144.568478 149.868794 145.82036 144.75 147 C139.412175 148.283814 134.533488 149.85427 129.636719 152.363281 C129.096602 152.573398 128.556484 152.783516 128 153 C125.669155 151.834578 124.962132 150.785498 123.4375 148.6875 C121.517054 146.061779 119.582711 143.454733 117.605469 140.871094 C116.990707 140.066356 116.990707 140.066356 116.363525 139.245361 C115.163398 137.675236 113.960648 136.107115 112.757812 134.539062 C111 132 111 132 111 130 C110.34 130 109.68 130 109 130 C107.212968 128.023911 105.593864 125.943192 103.949219 123.847656 C101.650075 121.668307 100.104207 121.336601 97 121 C96.67 121.66 96.34 122.32 96 123 C96.66 123 97.32 123 98 123 C98.291328 123.545273 98.582656 124.090547 98.882812 124.652344 C101.069406 128.674851 103.325841 132.550058 105.9375 136.3125 C109.532639 141.589086 112.240092 147.255733 115 153 C115.664009 154.334659 116.329541 155.66857 117 157 C116.359336 157.181758 115.718672 157.363516 115.058594 157.550781 C110.560001 158.858122 106.292813 160.262674 102.015625 162.191406 C98.2823 163.689077 94.396291 164.737046 90.546875 165.894531 C83.229795 168.175075 76.036054 170.834479 68.875 173.5625 C54.5 179 54.5 179 51 179 C50.67 179.66 50.34 180.32 50 181 C47.293143 182.105113 44.537902 182.986834 41.761719 183.902344 C38.971321 184.862378 38.971321 184.862378 36.863281 186.664062 C35 188 35 188 31.5 187.4375 C30.807773 187.317617 30.115547 187.197734 29.402344 187.074219 C23.593642 186.894763 17.893088 189.894361 12.546875 191.9375 C5.814991 194.385458 -0.359373 195.433075 -7.125 192.5 C-11.023849 190.33311 -13.614403 187.373534 -16.359375 183.902344 C-18.071081 181.91758 -19.90617 180.560698 -22 179 C-23.051044 177.365043 -24.059883 175.701164 -25 174 C-25.33 173.67 -25.66 173.34 -26 173 C-26.087262 171.219288 -26.10699 169.435169 -26.097656 167.652344 C-26.094434 166.572754 -26.091211 165.493164 -26.087891 164.380859 C-26.079512 163.244551 -26.071133 162.108242 -26.0625 160.9375 C-26.057988 159.797324 -26.053477 158.657148 -26.048828 157.482422 C-26.036997 154.654896 -26.020514 151.827474 -26 149 C-26.66 148.67 -27.32 148.34 -28 148 C-28.332663 141.790292 -27.450293 137.717351 -25 132 C-24.34 132 -23.68 132 -23 132 C-22.659688 130.607813 -22.659688 130.607813 -22.3125 129.1875 C-20.737265 125.361928 -19.561817 124.905158 -16 123 C-12.810187 120.276989 -10.82096 117.844129 -9.125 114.0625 C-7.009075 109.593666 -4.303055 106.494016 0 104 C3.875 103.3125 3.875 103.3125 5.917969 103.207031 C8.22679 102.977449 10.02616 102.333716 12.1875 101.5 C17.123662 99.725394 21.969505 99.469599 27.179688 99.210938 C30.078402 99.10975 30.078402 99.10975 33 98 C36.16574 99.010343 38.388212 99.846001 39.996094 102.878906 C40.286133 103.578867 40.576172 104.278828 40.875 105 C41.938753 107.41441 42.504997 108.698647 44.777344 110.082031 C46.832791 110.819783 48.896762 111.414238 51 112 C52.258647 112.521258 53.509429 113.062074 54.75 113.625 C57.211177 114.666267 59.396751 115.47935 62 116 C62.2475 115.195625 62.495 114.39125 62.75 113.5625 C64 111 64 111 65.6875 110.0625 C68 110 68 110 70.929688 110.957031 C76.010007 112.46214 81.173922 112.46062 86.4375 112.625 C87.455215 112.663672 88.47293 112.702344 89.521484 112.742188 C92.014046 112.835805 94.506997 112.918961 97 113 C97.33 108.38 97.66 103.76 98 99 C97.34 99 96.68 99 96 99 C96 98.34 96 97.68 96 97 C93.463267 98.355333 93.463267 98.355333 91 100 C91 100.66 91 101.32 91 102 C90.360625 101.731875 89.72125 101.46375 89.0625 101.1875 C86.175458 100.005082 86.175458 100.005082 83.804688 99.410156 C79.439899 98.192913 77.432324 97.51668 74.4375 93.9375 C73 91 73 91 73 89 C71.02 89 69.04 89 67 89 C67.309219 90.459033 67.622488 91.917207 67.9375 93.375 C68.198535 94.593164 68.198535 94.593164 68.464844 95.835938 C68.923307 98.029463 68.923307 98.029463 70 100 C67.125 99.75 67.125 99.75 64 99 C62.75 97.0625 62.75 97.0625 62 95 C61.34 94.34 60.68 93.68 60 93 C58.439838 90.689434 56.940338 88.344277 55.4375 85.996094 C54.148902 83.880927 54.148902 83.880927 52 83 C52 82.34 52 81.68 52 81 C51.154375 80.731875 50.30875 80.46375 49.4375 80.1875 C45.861459 78.95214 42.461391 77.523012 39 76 C39 76.99 39 77.98 39 79 C39.66 79.33 40.32 79.66 41 80 C41.61875 80.639375 42.2375 81.27875 42.875 81.9375 C44.899077 83.902045 46.464459 84.854917 49 86 C49.99 86.66 50.98 87.32 52 88 C52.4375 90.375 52.4375 90.375 52 93 C50.3125 95.375 50.3125 95.375 48 97 C45.25 96.75 45.25 96.75 43 96 C43 95.34 43 94.68 43 94 C44.32 93.34 45.64 92.68 47 92 C47 91.34 47 90.68 47 90 C46.012578 89.517891 45.025156 89.035781 44.007812 88.539062 C42.713437 87.901254 41.419172 87.263222 40.125 86.625 C39.474023 86.307891 38.823047 85.990781 38.152344 85.664062 C35.41823 84.311099 33.172275 83.172275 31 81 C30.01 81 29.02 81 28 81 C27.67 81.66 27.34 82.32 27 83 C25.618459 83.424642 24.218601 83.790551 22.8125 84.125 C17.265039 85.84754 14.861638 89.11176 12 94 C11.724141 94.703828 11.448281 95.407656 11.164062 96.132812 C9.056567 99.513292 5.524322 99.767261 1.839844 100.648438 C-2.549607 101.191836 -4.403521 100.580083 -8 98 C-9.608829 93.575722 -8.821577 89.564316 -8 85 C-7.168555 84.867227 -6.337109 84.734453 -5.480469 84.597656 C-4.393789 84.421055 -3.307109 84.244453 -2.1875 84.0625 C-0.569082 83.801465 -0.569082 83.801465 1.082031 83.535156 C4.049334 83.061281 4.049334 83.061281 7 82 C7 80.02 7 78.04 7 76 C6.34 75.67 5.68 75.34 5 75 C3.980588 74.019796 2.977536 73.02197 2 72 C5.370974 70.501789 7.204421 70 11 70 C11.33 69.34 11.66 68.68 12 68 C13.993308 66.656683 15.993849 65.32406 18 64 C18.556875 63.4225 19.11375 62.845 19.6875 62.25 C21 61 21 61 24 61 C24 59.02 24 57.04 24 55 C24.99 55.33 25.98 55.66 27 56 C26.67 57.32 26.34 58.64 26 60 C32.707786 59.226025 39.345743 58.142314 46 57 C45.907188 55.576875 45.907188 55.576875 45.8125 54.125 C45.874375 53.09375 45.93625 52.0625 46 51 C49 49 49 49 53 49 C52.67 48.34 52.34 47.68 52 47 C49.644008 46.532482 49.644008 46.532482 46.9375 46.375 C46.018398 46.300234 45.099297 46.225469 44.152344 46.148438 C43.44207 46.099453 42.731797 46.050469 42 46 C42 44.35 42 42.7 42 41 C40.68 41.33 39.36 41.66 38 42 C37.04975 45.695416 37.04975 48.304584 38 52 C36.35 53.32 34.7 54.64 33 56 C32.360625 55.34 31.72125 54.68 31.0625 54 C27.360114 51.582115 25.277503 51.690307 20.988281 51.957031 C19 52 19 52 17 51 C16.375 48.4375 16.375 48.4375 16 46 C18.15349 44.325063 20.226549 42.875937 22.625 41.5625 C25.122241 40.241227 25.122241 40.241227 25.8125 38 C27.453365 35.236439 29.576093 34.50868 32.558594 33.542969 C41.425445 31.570981 49.707986 33.353776 58.300537 35.664307 C62.644254 36.859404 62.644254 36.859404 67 36 C68.892127 35.778202 70.788845 35.59386 72.6875 35.4375 C73.681367 35.353711 74.675234 35.269922 75.699219 35.183594 C76.458477 35.123008 77.217734 35.062422 78 35 C78 34.34 78 33.68 78 33 C70.451011 28.909207 62.872271 25.711751 54.679688 23.152344 C52.462733 22.458074 50.255179 21.730871 48.070312 20.941406 C37.383701 17.219917 26.159022 15.976072 14.994629 14.422852 C12.526623 14.074361 10.066256 13.699971 7.605469 13.304688 C-8.937666 10.844871 -25.610292 11.511807 -42.1875 13.3125 C-43.272649 13.430046 -44.357798 13.547593 -45.47583 13.668701 C-52.21822 14.475725 -58.72477 15.76099 -65.313721 17.403076 C-68 18 -68 18 -71 18 C-71.33 18.66 -71.66 19.32 -72 20 C-74.046875 20.675781 -74.046875 20.675781 -76.75 21.3125 C-85.771872 23.644127 -94.375337 26.820699 -102.417969 31.550781 C-106.566206 33.879066 -110.862738 35.918285 -115.153564 37.969971 C-119.803864 40.243208 -123.853452 42.898166 -128 46 C-127.733238 47.984916 -127.733238 47.984916 -127 50 C-123.927579 51.400962 -123.927579 51.400962 -120.8125 49.5625 C-119.884375 49.046875 -118.95625 48.53125 -118 48 C-117.01 49.32 -116.02 50.64 -115 52 C-120.415324 57.064921 -124.74298 58.531548 -132.023438 59.453125 C-137.801477 60.514707 -142.433268 63.064625 -146.125 67.625 C-147.315601 70.094355 -147.315601 70.094355 -146 73 C-143.999835 74.208821 -143.999835 74.208821 -142 75 C-142.537259 78.377056 -143.110646 81.696686 -144 85 C-140.940816 84.67762 -140.038296 84.04227 -137.929688 81.714844 C-137.251641 80.79832 -136.573594 79.881797 -135.875 78.9375 C-134.626869 77.258411 -133.344233 75.603187 -132 74 C-131.34 74 -130.68 74 -130 74 C-129.67 73.34 -129.34 72.68 -129 72 C-128.175 71.195625 -127.35 70.39125 -126.5 69.5625 C-123.820634 67.188798 -123.820634 67.188798 -123 64 C-118.902398 59.778228 -115.633364 59.381923 -110 59 C-109.01 61.97 -109.01 61.97 -108 65 C-104.454811 63.602401 -104.454811 63.602401 -101 62 C-100.9175 62.94875 -100.835 63.8975 -100.75 64.875 C-100.349251 68.104618 -100.349251 68.104618 -97.9375 69.375 C-97.298125 69.58125 -96.65875 69.7875 -96 70 C-96.66 71.65 -97.32 73.3 -98 75 C-98.66 75 -99.32 75 -100 75 C-100 75.66 -100 76.32 -100 77 C-100.66 77 -101.32 77 -102 77 C-102 77.66 -102 78.32 -102 79 C-100.68 79.66 -99.36 80.32 -98 81 C-98.375 82.9375 -98.375 82.9375 -99 85 C-101.956645 86.478323 -104.742297 86.060328 -108 86 C-107.34 84.02 -106.68 82.04 -106 80 C-108.885717 80 -111.249701 80.403471 -114.0625 81 C-118.791667 82 -118.791667 82 -121 82 C-120.67 82.99 -120.34 83.98 -120 85 C-119.960458 87.332998 -119.955983 89.667082 -120 92 C-119.01 91.67 -118.02 91.34 -117 91 C-117 91.66 -117 92.32 -117 93 C-122.652757 96.809466 -127.226136 97.72741 -134 98 C-134 98.66 -134 99.32 -134 100 C-135.485 100.495 -135.485 100.495 -137 101 C-137.5775 101.763125 -138.155 102.52625 -138.75 103.3125 C-141.027931 106.033363 -143.162647 107.321713 -146.265625 108.972656 C-151.338324 111.977431 -156.139786 117.419359 -158 123 C-158.66 123 -159.32 123 -160 123 C-160.226875 123.5775 -160.45375 124.155 -160.6875 124.75 C-162.329161 127.564276 -164.435591 129.027377 -167 131 C-167.33 131.66 -167.66 132.32 -168 133 C-168.66 133 -169.32 133 -170 133 C-171.32 138.28 -172.64 143.56 -174 149 C-174.66 148.67 -175.32 148.34 -176 148 C-176.597656 145.96875 -176.597656 145.96875 -177.0625 143.5 C-177.458648 140.462268 -177.458648 140.462268 -179 138 C-186.443424 138.24011 -192.529168 140.290827 -199 144 C-199.33 144.66 -199.66 145.32 -200 146 C-200.66 146 -201.32 146 -202 146 C-205.115846 154.049269 -205.333289 161.433251 -205 170 C-200.971576 169.408917 -200.971576 169.408917 -197.875 166.8125 C-195.977251 163.965877 -194.441854 161.099986 -193 158 C-191.68 158 -190.36 158 -189 158 C-188.505 160.475 -188.505 160.475 -188 163 C-188.66 163 -189.32 163 -190 163 C-190.752411 166.654568 -191.400497 170.317339 -192 174 C-189.69 174.66 -187.38 175.32 -185 176 C-184.228875 180.723143 -183.902351 185.215212 -184 190 C-180.833785 192.11081 -177.746968 192.465837 -173.972656 192.402344 C-170.6569 191.726061 -169.038774 189.548468 -167 187 C-166.01 187.33 -165.02 187.66 -164 188 C-164 187.34 -164 186.68 -164 186 C-157.344611 184.607012 -148.185068 183.907466 -142 187 C-142 187.66 -142 188.32 -142 189 C-141.46375 189.226875 -140.9275 189.45375 -140.375 189.6875 C-138 191 -138 191 -135.5 193.375 C-131.787411 196.602097 -127.449906 197.716631 -122.804688 199.105469 C-118.66042 200.427248 -116.583263 201.094936 -114.1875 204.8125 C-112.907106 208.249348 -112.803262 209.5939 -114 213 C-114.66 213.99 -115.32 214.98 -116 216 C-115.164688 215.822109 -115.164688 215.822109 -114.3125 215.640625 C-108.815147 214.712018 -106.044967 215.16906 -101.296875 217.960938 C-98.373449 219.28344 -95.68164 219.563621 -92.5 219.9375 C-86.807038 220.68466 -82.23595 221.975291 -78 226 C-76.792969 228.164063 -76.792969 228.164063 -76 230 C-81.75 232 -81.75 232 -84 232 C-84.33 232.66 -84.66 233.32 -85 234 C-86.901855 234.961426 -86.901855 234.961426 -89.367188 235.945312 C-90.252773 236.299805 -91.138359 236.654297 -92.050781 237.019531 C-92.982773 237.384336 -93.914766 237.749141 -94.875 238.125 C-95.799258 238.497539 -96.723516 238.870078 -97.675781 239.253906 C-104.606399 242 -104.606399 242 -108 242 C-108.33 242.66 -108.66 243.32 -109 244 C-109.66 243.67 -110.32 243.34 -111 243 C-111.33 243.66 -111.66 244.32 -112 245 C-115 246 -115 246 -118 246 C-118.33 246.66 -118.66 247.32 -119 248 C-120.707031 248.78125 -120.707031 248.78125 -122.8125 249.5 C-125.086282 250.299884 -127.164232 251.084335 -129.3125 252.1875 C-131 253 -131 253 -134 253 C-134.33 253.66 -134.66 254.32 -135 255 C-136.714477 255.923401 -138.472767 256.766547 -140.25 257.5625 C-141.203906 257.996914 -142.157813 258.431328 -143.140625 258.878906 C-146 260 -146 260 -148.796875 260.527344 C-149.523906 260.68332 -150.250938 260.839297 -151 261 C-151.33 261.66 -151.66 262.32 -152 263 C-154.375 263.8125 -154.375 263.8125 -157 264 C-158.4375 262.875 -158.4375 262.875 -160 261 C-160.928125 260.29875 -161.85625 259.5975 -162.8125 258.875 C-169.784818 253.07624 -173.791007 244.306464 -177 236 C-177 235.34 -177 234.68 -177 234 C-177.66 233.67 -178.32 233.34 -179 233 C-180.170544 229.73758 -180.230773 226.441117 -180.3125 223 C-180.368574 221.453125 -180.368574 221.453125 -180.425781 219.875 C-179.896645 216.30212 -178.646469 215.347919 -176 213 C-174.859223 209.57767 -174.901849 206.913268 -174.9375 203.3125 C-174.946523 202.133008 -174.955547 200.953516 -174.964844 199.738281 C-174.976445 198.834648 -174.988047 197.931016 -175 197 C-177.33738 196.248699 -178.633502 195.891041 -181.023438 196.601562 C-183 197 -183 197 -184.851562 195.960938 C-188.388409 192.798031 -190.40283 190.545791 -192 186 C-194.255919 183.905218 -196.386216 182.818251 -199.1875 181.5 C-202 180 -202 180 -203 177 C-204.639688 176.845312 -204.639688 176.845312 -206.3125 176.6875 C-210 176 -210 176 -211.9375 174.5625 C-213 173 -213 173 -213 171 C-213.99 171 -214.98 171 -216 171 C-216.475305 201.0975 -216.475305 201.0975 -213.28125 230.977051 C-212.907834 233.662925 -212.894743 236.294011 -213 239 C-212.34 239.33 -211.68 239.66 -211 240 C-210.289062 242.1875 -210.289062 242.1875 -209.625 245 C-208.237284 250.338946 -206.424638 255.056913 -204 260 C-203.688047 260.637603 -203.376094 261.275205 -203.054688 261.932129 C-199.714259 269.967344 -199.714259 269.967344 -195 277 C-194.959362 278.666171 -194.957279 280.333881 -195 282 C-200 283.666667 -205 285.333333 -210 287 C-211.982266 282.679735 -213.957545 278.35637 -215.926514 274.030029 C-216.596818 272.559762 -217.268999 271.090349 -217.943115 269.621826 C-218.913683 267.506633 -219.877385 265.388425 -220.839844 263.269531 C-221.140915 262.617251 -221.441987 261.96497 -221.752182 261.292923 C-222.984438 258.565282 -223.989793 256.051555 -224.57251 253.108154 C-224.713582 252.412463 -224.854653 251.716772 -225 251 C-225.66 250.67 -226.32 250.34 -227 250 C-227.868895 248.425666 -228.672637 246.814919 -229.4375 245.1875 C-230.687348 242.535002 -231.813805 240.233518 -233.644531 237.9375 C-235.925614 234.676932 -235.254844 231.886371 -235 228 C-234.67 227.67 -234.34 227.34 -234 227 C-234 225.68 -234 224.36 -234 223 C-234 219 -234 219 -233 218 C-232.90274 216.647213 -232.86796 215.289846 -232.859375 213.933594 C-232.604055 200.263175 -230.638586 187.594471 -227.443115 174.308105 C-226.874307 171.736999 -226.874307 171.736999 -227 168 C-226.34 168 -225.68 168 -225 168 C-225.034805 167.443125 -225.069609 166.88625 -225.105469 166.3125 C-225.280402 161.381056 -224.792522 157.724432 -222.867188 153.195312 C-221.180999 148.926672 -220.150156 144.437483 -219 140 C-218.34 140 -217.68 140 -217 140 C-217 138.35 -217 136.7 -217 135 C-216.34 135 -215.68 135 -215 135 C-214.649375 133.80375 -214.29875 132.6075 -213.9375 131.375 C-210.900737 122.235788 -206.116375 113.148302 -201 105 C-200.34 104.67 -199.68 104.34 -199 104 C-198.328827 102.335143 -197.663004 100.668127 -197 99 C-195.85782 97.240568 -194.668379 95.511061 -193.4375 93.8125 C-191.027994 90.521217 -191.027994 90.521217 -189 87 C-188.34 87 -187.68 87 -187 87 C-186.732842 86.410657 -186.465684 85.821313 -186.19043 85.214111 C-184.981729 82.966017 -183.711094 81.414083 -181.953125 79.574219 C-181.355 78.941934 -180.756875 78.309648 -180.140625 77.658203 C-179.516719 77.007871 -178.892812 76.357539 -178.25 75.6875 C-174.165542 71.399684 -170.156774 67.100291 -166.381104 62.535645 C-164.921957 60.913224 -163.37944 59.563155 -161.6875 58.1875 C-158.969248 56.281305 -158.969248 56.281305 -158 54 C-155.342439 52.251605 -153.026176 51.008725 -150 50 C-150 49.34 -150 48.68 -150 48 C-148.503906 46.78125 -148.503906 46.78125 -146.5625 45.5 C-143.774682 43.713464 -143.774682 43.713464 -142 41 C-140 40 -138 39 -136 38 C-135.552695 37.537227 -135.105391 37.074453 -134.644531 36.597656 C-132.503354 34.51751 -130.185989 33.291755 -127.5625 31.875 C-126.615039 31.356797 -125.667578 30.838594 -124.691406 30.304688 C-122 29 -122 29 -119.714844 28.445312 C-119.148945 28.298359 -118.583047 28.151406 -118 28 C-117.67 27.34 -117.34 26.68 -117 26 C-103.217822 18 -103.217822 18 -97 18 C-96.67 17.34 -96.34 16.68 -96 16 C-94.68 16 -93.36 16 -92 16 C-92 15.34 -92 14.68 -92 14 C-60.988425 4.087995 -32.377699 0.769111 0 0 Z M84 73 C83.67 74.32 83.34 75.64 83 77 C81.88625 76.535938 81.88625 76.535938 80.75 76.0625 C77.444259 74.757141 77.444259 74.757141 74 74 C71.587696 75.980985 71.587696 75.980985 71.6875 79.8125 C71.763448 83.603014 72.693768 85.925024 75 89 C76.2375 88.690625 77.475 88.38125 78.75 88.0625 C80.166667 87.708333 81.583333 87.354167 83 87 C83.667734 86.782148 84.335469 86.564297 85.023438 86.339844 C87.493997 85.915064 88.623374 86.45105 90.875 87.5 C94.602792 89.042775 97.037561 89.089671 101 88 C101 86.68 101 85.36 101 84 C98.555836 82.11012 98.555836 82.11012 95.5 80.5 C92.40625 78.78125 92.40625 78.78125 90 77 C90 75.68 90 74.36 90 73 C88.02 73 86.04 73 84 73 Z M110 75 C109.67 75.99 109.34 76.98 109 78 C108.34 78 107.68 78 107 78 C107.977777 82.033332 109.824121 83.844309 112.9375 86.375 C116.855718 89.610552 118.433054 92.201228 120 97 C120.66 97 121.32 97 122 97 C122.33 97.99 122.66 98.98 123 100 C124.65 99.67 126.3 99.34 128 99 C127.67 96.69 127.34 94.38 127 92 C126.34 92 125.68 92 125 92 C124.7525 91.21625 124.505 90.4325 124.25 89.625 C122.846109 86.676829 121.993243 86.097522 119 85 C119 84.34 119 83.68 119 83 C117.355117 81.311831 115.686625 79.646467 114 78 C113.34 77.01 112.68 76.02 112 75 C111.34 75 110.68 75 110 75 Z " fill="#FE5300" transform="translate(305,0)"/>
<path d="M0 0 C7.178235 6.533234 9.433945 17.007841 12 26 C12.301641 26.871406 12.603281 27.742813 12.914062 28.640625 C17.270144 41.912426 15.342105 56.251417 12.496094 69.646484 C11.961716 72.181623 11.465181 74.722797 10.96875 77.265625 C8.548692 89.306096 5.350609 100.967737 1.591064 112.659912 C1.087726 114.228177 1.087726 114.228177 0.574219 115.828125 C0.270886 116.755283 -0.032446 117.682441 -0.344971 118.637695 C-1.133601 121.073247 -1.133601 121.073247 -1 124 C-1.66 124 -2.32 124 -3 124 C-3.090234 124.832734 -3.180469 125.665469 -3.273438 126.523438 C-4.12239 130.58563 -5.727848 133.974218 -7.625 137.625 C-7.984004 138.326492 -8.343008 139.027983 -8.712891 139.750732 C-13.585097 149.182577 -18.862574 158.075099 -25.214844 166.59375 C-26.622968 168.49179 -27.962197 170.395319 -29.25 172.375 C-31.038849 175.058273 -32.865566 177.580975 -35 180 C-35.66 180 -36.32 180 -37 180 C-37.273281 180.589102 -37.546562 181.178203 -37.828125 181.785156 C-40.949424 187.684411 -45.934848 191.797002 -51 196 C-51.764414 196.942305 -52.528828 197.884609 -53.316406 198.855469 C-69.191207 218.217937 -101.230997 234.65244 -125 241 C-125.915234 241.246211 -126.830469 241.492422 -127.773438 241.746094 C-128.631953 241.974258 -129.490469 242.202422 -130.375 242.4375 C-133.882666 243.377996 -137.278447 244.43928 -140.6875 245.6875 C-144.938706 247.160842 -148.523172 247.244191 -153 247 C-153.33 247.66 -153.66 248.32 -154 249 C-156.949219 249.632812 -156.949219 249.632812 -160.6875 250.125 C-162.518613 250.376367 -162.518613 250.376367 -164.386719 250.632812 C-168 251 -168 251 -171.332031 250.992188 C-173.974957 250.802232 -173.974957 250.802232 -176 252 C-178.758125 252.065616 -181.485526 252.068818 -184.242188 252.019531 C-185.074101 252.006857 -185.906015 251.994183 -186.763138 251.981125 C-189.467366 251.934159 -192.171093 251.875239 -194.875 251.8125 C-195.786498 251.792439 -196.697996 251.772378 -197.637115 251.751709 C-210.79948 251.436028 -223.246469 250.458585 -236 247 C-237.665528 246.661022 -239.332266 246.327954 -241 246 C-243.941746 245.330447 -246.876998 244.633851 -249.8125 243.9375 C-250.600762 243.75123 -251.389023 243.564961 -252.201172 243.373047 C-254.134295 242.916127 -256.067172 242.458168 -258 242 C-258 241.34 -258 240.68 -258 240 C-259.216875 239.87625 -260.43375 239.7525 -261.6875 239.625 C-276.801333 238.088 -292.823717 226.573918 -305.414062 218.796875 C-309.863302 216.04977 -314.407201 213.498198 -319 211 C-319 210.34 -319 209.68 -319 209 C-319.99 209 -320.98 209 -322 209 C-323.356317 207.690053 -324.685711 206.35211 -326 205 C-327.892219 203.713291 -329.811259 202.46548 -331.75 201.25 C-341.203899 195.004906 -347.357548 188.445517 -352 178 C-352 177.34 -352 176.68 -352 176 C-352.66 175.67 -353.32 175.34 -354 175 C-354.333333 173.333333 -354.666667 171.666667 -355 170 C-355.66 169.67 -356.32 169.34 -357 169 C-357.858169 167.17566 -358.637589 165.313905 -359.375 163.4375 C-360.883409 159.677669 -362.431437 156.025577 -364.3125 152.4375 C-366 149 -366 149 -366 146 C-366.66 145.67 -367.32 145.34 -368 145 C-367.808594 143.140625 -367.808594 143.140625 -367 141 C-364.785156 139.734375 -364.785156 139.734375 -362.0625 138.75 C-361.166602 138.414844 -360.270703 138.079687 -359.347656 137.734375 C-357 137 -357 137 -355 137 C-354.505 136.01 -354.505 136.01 -354 135 C-353.01 135 -352.02 135 -351 135 C-351 134.34 -351 133.68 -351 133 C-350.01 133 -349.02 133 -348 133 C-347.67 132.34 -347.34 131.68 -347 131 C-346.575898 131.507891 -346.151797 132.015781 -345.714844 132.539062 C-342.248459 136.607303 -338.730357 140.2481 -334.605469 143.644531 C-333 145 -333 145 -330.6875 147.375 C-324.155964 154.421823 -324.155964 154.421823 -316 158 C-314.333333 159.666667 -312.666667 161.333333 -311 163 C-310.34 163 -309.68 163 -309 163 C-309 163.66 -309 164.32 -309 165 C-306.062795 166.522995 -303.083135 167.801003 -300 169 C-300 169.66 -300 170.32 -300 171 C-299.370937 171.241055 -298.741875 171.482109 -298.09375 171.730469 C-294.72428 173.113143 -291.420557 174.610888 -288.107666 176.123047 C-273.003622 183.389241 -273.003622 183.389241 -257 188 C-257 188.66 -257 189.32 -257 190 C-251.06 190.99 -251.06 190.99 -245 192 C-245 192.66 -245 193.32 -245 194 C-243.839844 194.073477 -243.839844 194.073477 -242.65625 194.148438 C-233.1046 194.834076 -233.1046 194.834076 -228.6875 196.0625 C-221.064163 198.000637 -216.365821 196.617277 -209.355469 193.484375 C-206.800827 191.874485 -206.031857 190.791381 -205 188 C-204.028047 188.034805 -203.056094 188.069609 -202.054688 188.105469 C-187.247814 188.459273 -172.762674 186.484221 -158.286133 183.44751 C-152.781616 182.370002 -147.48377 181.407938 -142 183 C-141.67 182.34 -141.34 181.68 -141 181 C-139.68 181.33 -138.36 181.66 -137 182 C-136.67 181.34 -136.34 180.68 -136 180 C-133.494742 179.209651 -131.050879 178.540331 -128.5 177.9375 C-127.776191 177.761221 -127.052383 177.584941 -126.306641 177.40332 C-121.21332 176.197248 -116.227779 175.373413 -111 175 C-111.375 176.9375 -111.375 176.9375 -112 179 C-112.66 179.33 -113.32 179.66 -114 180 C-114.33 180.99 -114.66 181.98 -115 183 C-114.156953 182.639063 -113.313906 182.278125 -112.445312 181.90625 C-111.349609 181.442187 -110.253906 180.978125 -109.125 180.5 C-108.034453 180.035937 -106.943906 179.571875 -105.820312 179.09375 C-103 178 -103 178 -101 178 C-100.67 177.34 -100.34 176.68 -100 176 C-98.503637 175.163 -96.976048 174.381663 -95.4375 173.625 C-83.489231 167.261924 -72.743477 158.331529 -63 149 C-62.29875 148.338711 -61.5975 147.677422 -60.875 146.996094 C-57.165183 143.517824 -57.165183 143.517824 -55 139 C-54.34 139 -53.68 139 -53 139 C-53 138.34 -53 137.68 -53 137 C-51.352531 135.314354 -49.681801 133.651393 -48 132 C-46.3086 129.978897 -44.667271 127.961454 -43.0625 125.875 C-42.629375 125.31458 -42.19625 124.75416 -41.75 124.176758 C-38.375712 119.712122 -35.650107 115.063587 -33.15625 110.046875 C-32 108 -32 108 -30 107 C-29.275444 105.357672 -28.622256 103.683752 -28 102 C-25.332896 95.166448 -25.332896 95.166448 -23 94 C-22.259767 92.026045 -21.612389 90.017281 -21 88 C-19.201351 82.326409 -17.170688 76.752647 -15.0625 71.1875 C-10.135689 58.347513 -10.135689 58.347513 -7 45 C-6.846602 44.069136 -6.693203 43.138271 -6.535156 42.179199 C-6.37918 41.23061 -6.223203 40.282021 -6.0625 39.304688 C-5.708377 37.161451 -5.354209 35.018222 -5 32.875 C-4.822109 31.790898 -4.644219 30.706797 -4.460938 29.589844 C-4.201836 28.025566 -4.201836 28.025566 -3.9375 26.429688 C-3.781523 25.483354 -3.625547 24.537021 -3.464844 23.562012 C-3.177137 21.976298 -2.846084 20.396987 -2.44751 18.835449 C-1.825828 16.285636 -1.906325 13.868671 -1.9375 11.25 C-1.951035 9.772734 -1.951035 9.772734 -1.964844 8.265625 C-1.976445 7.517969 -1.988047 6.770312 -2 6 C-1.34 6 -0.68 6 0 6 C0 4.02 0 2.04 0 0 Z " fill="#FE5300" transform="translate(481,183)"/>
<path d="M0 0 C2.753611 2.753611 3.47414 5.998454 4.625 9.625 C4.854453 10.331406 5.083906 11.037813 5.320312 11.765625 C5.885624 13.508669 6.443525 15.254114 7 17 C4.182591 19.320978 1.828157 20.548904 -1.6875 21.5 C-9.921576 23.764034 -17.949374 26.663703 -26 29.5 C-30.961776 31.248072 -35.92585 32.989184 -40.90625 34.683594 C-41.610723 34.923923 -42.315195 35.164253 -43.041016 35.411865 C-45 36 -45 36 -48.5 36.5625 C-49.325 36.706875 -50.15 36.85125 -51 37 C-51.33 37.66 -51.66 38.32 -52 39 C-54.062658 39.391194 -56.094433 39.506745 -58.1875 39.65625 C-58.785625 39.769688 -59.38375 39.883125 -60 40 C-60.33 40.66 -60.66 41.32 -61 42 C-62.757812 42.640625 -62.757812 42.640625 -65.125 43.25 C-70.45874 44.738843 -75.479563 46.74263 -80.557129 48.930664 C-83.7277 50.255755 -86.477281 51.067978 -89.894531 51.554688 C-90.919336 51.701641 -91.944141 51.848594 -93 52 C-93.33 52.66 -93.66 53.32 -94 54 C-96.304505 54.638171 -98.614963 55.020373 -100.96875 55.4375 C-101.639063 55.623125 -102.309375 55.80875 -103 56 C-103.33 56.66 -103.66 57.32 -104 58 C-106.333333 58.333333 -108.666667 58.666667 -111 59 C-111.33 59.66 -111.66 60.32 -112 61 C-114.304505 61.638171 -116.614963 62.020373 -118.96875 62.4375 C-119.639063 62.623125 -120.309375 62.80875 -121 63 C-121.33 63.66 -121.66 64.32 -122 65 C-124.144531 65.78125 -124.144531 65.78125 -126.8125 66.5 C-129.396536 67.202308 -131.702877 67.843325 -134.074219 69.09375 C-136 70 -136 70 -140 70 C-140.33 70.66 -140.66 71.32 -141 72 C-143.074219 72.746094 -143.074219 72.746094 -145.6875 73.4375 C-148.896968 74.332845 -151.49433 75.247165 -154.5 76.75 C-155.325 77.1625 -156.15 77.575 -157 78 C-157.66 77.67 -158.32 77.34 -159 77 C-159.33 77.66 -159.66 78.32 -160 79 C-162.328125 80 -162.328125 80 -165.25 81 C-168.092961 81.983511 -170.89881 82.957394 -173.671875 84.125 C-176 85 -176 85 -179 85 C-179.33 85.66 -179.66 86.32 -180 87 C-182.532407 88.059597 -185.040635 89.023068 -187.625 89.9375 C-192.827157 91.810468 -197.925576 93.79525 -203 96 C-205.244479 96.909578 -207.494384 97.805903 -209.75 98.6875 C-210.858594 99.124492 -211.967188 99.561484 -213.109375 100.011719 C-216 101 -216 101 -219 101 C-219.33 101.66 -219.66 102.32 -220 103 C-222.47029 104.067189 -224.909872 105.027064 -227.4375 105.9375 C-228.159456 106.204014 -228.881411 106.470527 -229.625244 106.745117 C-234.452455 108.505953 -239.302368 110.063722 -244.277344 111.359375 C-246.212316 111.85592 -246.212316 111.85592 -247 114 C-249.591012 115.183696 -252.165178 116.269898 -254.8125 117.3125 C-256.365983 117.937256 -257.919368 118.562258 -259.472656 119.1875 C-260.241099 119.494297 -261.009541 119.801094 -261.80127 120.117188 C-264.796489 121.319799 -267.773661 122.563998 -270.75 123.8125 C-273.347704 124.899825 -275.945894 125.978473 -278.5625 127.019531 C-280.815663 127.925852 -283.03397 128.88189 -285.25 129.875 C-286.029883 130.223047 -286.809766 130.571094 -287.613281 130.929688 C-289.153287 131.620296 -290.692418 132.312861 -292.230469 133.007812 C-306.629754 139.48112 -306.629754 139.48112 -311.230469 140.488281 C-311.814414 140.657148 -312.398359 140.826016 -313 141 C-313.33 141.66 -313.66 142.32 -314 143 C-316.304505 143.638171 -318.614963 144.020373 -320.96875 144.4375 C-321.639063 144.623125 -322.309375 144.80875 -323 145 C-323.33 145.66 -323.66 146.32 -324 147 C-325.725574 147.864723 -327.493788 148.64506 -329.277344 149.382812 C-330.34791 149.827539 -331.418477 150.272266 -332.521484 150.730469 C-333.64877 151.190664 -334.776055 151.650859 -335.9375 152.125 C-337.060918 152.59293 -338.184336 153.060859 -339.341797 153.542969 C-347.722326 157 -347.722326 157 -350 157 C-350.33 157.66 -350.66 158.32 -351 159 C-353.589282 160.31951 -356.153627 161.526715 -358.8125 162.6875 C-359.537598 163.020723 -360.262695 163.353945 -361.009766 163.697266 C-361.714238 164.007285 -362.418711 164.317305 -363.144531 164.636719 C-364.109032 165.065372 -364.109032 165.065372 -365.093018 165.502686 C-367.464409 166.121111 -368.739554 165.923881 -371 165 C-372.703125 162.164062 -372.703125 162.164062 -374.25 158.625 C-374.770781 157.462266 -375.291562 156.299531 -375.828125 155.101562 C-377 152 -377 152 -377 149 C-376.030625 148.87625 -375.06125 148.7525 -374.0625 148.625 C-373.051875 148.41875 -372.04125 148.2125 -371 148 C-370.505 147.01 -370.505 147.01 -370 146 C-368.109375 145 -368.109375 145 -365.75 144 C-364.93918 143.654531 -364.128359 143.309062 -363.292969 142.953125 C-362.536289 142.638594 -361.779609 142.324062 -361 142 C-359.545938 141.38125 -359.545938 141.38125 -358.0625 140.75 C-356 140 -356 140 -354 140 C-353.67 139.34 -353.34 138.68 -353 138 C-351.156267 137.118847 -349.273452 136.318583 -347.375 135.5625 C-343.928819 134.178311 -340.502386 132.794165 -337.125 131.25 C-334.050957 130.020383 -331.277659 129.399714 -328 129 C-328 128.34 -328 127.68 -328 127 C-326.758633 126.524336 -326.758633 126.524336 -325.492188 126.039062 C-316.484544 122.517716 -307.68893 118.647191 -298.942871 114.516113 C-293.676245 112.067434 -288.537951 110.136091 -282.909424 108.682373 C-280.800194 108.176854 -280.800194 108.176854 -280 106 C-278.050631 105.213362 -276.063985 104.517569 -274.0625 103.875 C-272.980977 103.521797 -271.899453 103.168594 -270.785156 102.804688 C-268 102 -268 102 -266 102 C-265.67 101.34 -265.34 100.68 -265 100 C-263.166521 99.19291 -261.294492 98.472907 -259.410156 97.792969 C-252.307714 95.148597 -245.366285 92.209912 -238.421631 89.178467 C-236.409338 88.300209 -234.395246 87.426178 -232.380859 86.552734 C-226.003187 83.822178 -226.003187 83.822178 -219.730957 80.863281 C-217.677863 79.83934 -215.652213 79.282225 -213.4375 78.6875 C-208.744367 77.31924 -204.469109 75.465427 -200.050781 73.390625 C-175.061798 62 -175.061798 62 -168 62 C-167.67 61.34 -167.34 60.68 -167 60 C-164.671875 59 -164.671875 59 -161.75 58 C-157.530599 56.540819 -157.530599 56.540819 -153.390625 54.875 C-151 54 -151 54 -147 54 C-146.67 53.34 -146.34 52.68 -146 52 C-143.545257 51.033335 -141.132842 50.176764 -138.625 49.375 C-137.939219 49.145547 -137.253438 48.916094 -136.546875 48.679688 C-133.586365 47.71205 -131.133915 47 -128 47 C-127.67 46.34 -127.34 45.68 -127 45 C-124.8125 44.289062 -124.8125 44.289062 -122 43.625 C-117.571262 42.487968 -113.642422 41.042688 -109.515625 39.105469 C-105.20185 37.209819 -100.742374 35.719033 -96.296875 34.164062 C-93.736146 33.259919 -91.211416 32.311971 -88.6875 31.3125 C-85.058913 30.020969 -81.565573 29.208208 -77.785156 28.527344 C-77.196055 28.35332 -76.606953 28.179297 -76 28 C-75.67 27.34 -75.34 26.68 -75 26 C-73.3125 25.359375 -73.3125 25.359375 -71 24.75 C-65.158615 23.113734 -59.492872 21.074059 -53.802734 18.981445 C-50.742892 17.875495 -48.280387 17 -45 17 C-44.67 16.34 -44.34 15.68 -44 15 C-42.225098 14.285645 -42.225098 14.285645 -39.914062 13.632812 C-38.64925 13.267001 -38.64925 13.267001 -37.358887 12.893799 C-36.456704 12.640095 -35.554521 12.386392 -34.625 12.125 C-28.125347 10.242496 -21.733238 8.266946 -15.398438 5.878906 C-4.813333 2 -4.813333 2 0 2 C0 1.34 0 0.68 0 0 Z " fill="#FE5300" transform="translate(472,150)"/>
<path d="M0 0 C0.495 0.99 0.495 0.99 1 2 C0.34 2 -0.32 2 -1 2 C-3.19405 10.404329 -4.222682 17.660048 -3.4375 26.3125 C-2.847947 33.299445 -2.880457 38.973488 -7 45 C-8.914163 47.128472 -10.566962 48.413236 -13 50 C-13.66 50 -14.32 50 -15 50 C-16.814194 53.259266 -17.705276 56.440614 -18.5625 60.0625 C-20.62324 68.700524 -20.62324 68.700524 -23.4375 70.9375 C-26.045141 72.743314 -26.045141 72.743314 -27 75 C-28.396208 77.792416 -30.560991 79.071481 -33 81 C-33.825 81.99 -34.65 82.98 -35.5 84 C-41.187923 90.825507 -47.908386 93.679952 -56.375 95.875 C-59.406977 96.01938 -60.711088 96.034588 -63 94 C-63.6875 90.5 -63.6875 90.5 -64 87 C-64.33 86.34 -64.66 85.68 -65 85 C-65 83.333333 -65 81.666667 -65 80 C-65.33 79.34 -65.66 78.68 -66 78 C-66.157733 75.689502 -66.276342 73.376273 -66.375 71.0625 C-66.618628 66.31543 -67.130036 61.92795 -68.5625 57.375 C-70.460256 51.267175 -70.272141 45.339866 -70 39 C-69.34 39 -68.68 39 -68 39 C-67.67 34.05 -67.34 29.1 -67 24 C-64.021488 22.894042 -61.04222 21.790196 -58.0625 20.6875 C-56.816299 20.224404 -56.816299 20.224404 -55.544922 19.751953 C-50.737688 17.97496 -45.916349 16.276299 -41.042236 14.691406 C-38.877007 13.95836 -36.754768 13.142499 -34.625 12.3125 C-31 11 -31 11 -28 11 C-28 10.34 -28 9.68 -28 9 C-26.718027 8.818242 -26.718027 8.818242 -25.410156 8.632812 C-24.30543 8.465234 -23.200703 8.297656 -22.0625 8.125 C-20.960352 7.962578 -19.858203 7.800156 -18.722656 7.632812 C-17.82418 7.423984 -16.925703 7.215156 -16 7 C-15.67 6.34 -15.34 5.68 -15 5 C-12.483258 4.039856 -10.003205 3.17956 -7.4375 2.375 C-6.726582 2.145547 -6.015664 1.916094 -5.283203 1.679688 C-3.52429 1.113058 -1.76241 0.555657 0 0 Z " fill="#FE5300" transform="translate(429,197)"/>
<path d="M0 0 C1.386719 2.75 1.386719 2.75 2.6875 6 C3.124492 7.0725 3.561484 8.145 4.011719 9.25 C5 12 5 12 5 14 C5.66 14.33 6.32 14.66 7 15 C7.333333 17 7.666667 19 8 21 C8.66 21.33 9.32 21.66 10 22 C10.837891 23.810059 10.837891 23.810059 11.65625 26.148438 C11.956602 26.988906 12.256953 27.829375 12.566406 28.695312 C13.028535 30.021758 13.028535 30.021758 13.5 31.375 C14.110948 33.113261 14.725395 34.850297 15.34375 36.585938 C15.748838 37.746819 15.748838 37.746819 16.162109 38.931152 C17.019222 41.247445 17.019222 41.247445 19 44 C19.125 46.6875 19.125 46.6875 19 49 C19.99 49.495 19.99 49.495 21 50 C21.638171 52.304505 22.020373 54.614963 22.4375 56.96875 C22.623125 57.639063 22.80875 58.309375 23 59 C23.99 59.495 23.99 59.495 25 60 C25.638171 62.304505 26.020373 64.614963 26.4375 66.96875 C26.623125 67.639063 26.80875 68.309375 27 69 C27.99 69.495 27.99 69.495 29 70 C30.289062 72.179688 30.289062 72.179688 31.625 74.875 C32.071016 75.759297 32.517031 76.643594 32.976562 77.554688 C34 80 34 80 34 83 C34.99 83.495 34.99 83.495 36 84 C36.666667 86 37.333333 88 38 90 C38.99 90.495 38.99 90.495 40 91 C43 96.423077 43 96.423077 43 99 C43.99 99.495 43.99 99.495 45 100 C45 100.99 45 101.98 45 103 C45.66 103.33 46.32 103.66 47 104 C48.382304 106.544496 49.67995 109.08241 50.9375 111.6875 C51.284902 112.39584 51.632305 113.10418 51.990234 113.833984 C52.675022 115.230641 53.356568 116.628893 54.034668 118.028809 C54.916553 119.829603 55.83348 121.613128 56.753906 123.394531 C58 126 58 126 58 128 C58.66 128 59.32 128 60 128 C60 129.32 60 130.64 60 132 C60.66 132.33 61.32 132.66 62 133 C63.042969 134.644531 63.042969 134.644531 64.1875 136.8125 C66.810101 141.690851 69.611873 146.446954 72.449219 151.203125 C75.740409 157.138873 76.406819 160.398772 75 167 C72 169 72 169 69 169 C68.67 169.66 68.34 170.32 68 171 C65.9375 172 65.9375 172 63 172 C57.164232 168.943169 53.724689 164.903492 51 159 C51 158.34 51 157.68 51 157 C50.34 156.67 49.68 156.34 49 156 C48.025339 154.218015 47.119795 152.397954 46.25 150.5625 C44.278209 146.508304 42.230472 142.594082 39.875 138.75 C33 127.514803 33 127.514803 33 123 C32.01 122.505 32.01 122.505 31 122 C29.796466 119.852155 28.696005 117.713645 27.625 115.5 C27.118036 114.469636 27.118036 114.469636 26.60083 113.418457 C21.742473 103.504187 16.998658 93.53314 12.241455 83.570068 C11.246171 81.509624 10.226409 79.46807 9.179688 77.433594 C7.973363 74.94505 7.538741 72.693704 7 70 C6.34 69.67 5.68 69.34 5 69 C4.105469 67.320312 4.105469 67.320312 3.1875 65.125 C1.640522 61.478552 0.007124 57.89276 -1.6875 54.3125 C-3.43919 50.50471 -4.450578 47.175607 -5 43 C-5.66 42.67 -6.32 42.34 -7 42 C-7.929688 40.066406 -7.929688 40.066406 -8.875 37.5625 C-10.586596 33.077603 -12.393813 28.646918 -14.265625 24.226562 C-15 22 -15 22 -15 18 C-15.66 17.67 -16.32 17.34 -17 17 C-18.310305 12.705113 -19.01101 8.49188 -19 4 C-17.176024 0.698205 -14.450091 -0.410901 -11 -1.8125 C-3.739726 -2.493151 -3.739726 -2.493151 0 0 Z " fill="#FE5300" transform="translate(58,235)"/>
<path d="M0 0 C6.370602 3.757021 9.220268 11.353392 12.5 17.6875 C13.02916 18.686523 13.55832 19.685547 14.103516 20.714844 C16.84528 25.978206 19.187008 31.062596 20.794678 36.78418 C21.308115 38.652629 21.308115 38.652629 23.4375 39.4375 C24.785292 41.856384 26.03767 44.264229 27.25 46.75 C27.607473 47.473325 27.964946 48.19665 28.333252 48.941895 C30.865513 54.120817 33.140832 59.371763 35.296875 64.71875 C36.387157 67.317505 37.589064 69.805739 38.875 72.3125 C47.4375 89.055732 47.4375 89.055732 47.4375 93.4375 C48.4275 93.9325 48.4275 93.9325 49.4375 94.4375 C50.29765 96.239718 51.076509 98.081115 51.8125 99.9375 C53.667788 104.55645 55.617005 109.095184 57.738281 113.597656 C58.4375 115.4375 58.4375 115.4375 58.4375 118.4375 C59.0975 118.7675 59.7575 119.0975 60.4375 119.4375 C63.4375 125.668269 63.4375 125.668269 63.4375 129.4375 C64.0975 129.7675 64.7575 130.0975 65.4375 130.4375 C66.645257 133.049349 67.753315 135.640872 68.8125 138.3125 C69.121956 139.086099 69.431411 139.859697 69.750244 140.656738 C70.367873 142.207353 70.982264 143.759261 71.593262 145.3125 C72.300549 147.092786 73.03917 148.86058 73.785156 150.625 C76.383993 157.0336 76.917251 162.547743 76.4375 169.4375 C74.88174 170.28335 73.317539 171.113684 71.75 171.9375 C70.879883 172.401563 70.009766 172.865625 69.113281 173.34375 C66.319612 174.485688 64.421209 174.652542 61.4375 174.4375 C61.31375 173.798125 61.19 173.15875 61.0625 172.5 C60.85625 171.819375 60.65 171.13875 60.4375 170.4375 C59.7775 170.1075 59.1175 169.7775 58.4375 169.4375 C58.104167 167.770833 57.770833 166.104167 57.4375 164.4375 C56.7775 164.1075 56.1175 163.7775 55.4375 163.4375 C54.314382 161.135981 53.290858 158.861634 52.3125 156.5 C52.035352 155.853535 51.758203 155.20707 51.472656 154.541016 C49.4375 149.713785 49.4375 149.713785 49.4375 147.4375 C48.7775 147.1075 48.1175 146.7775 47.4375 146.4375 C46.438126 144.071513 45.541764 141.730767 44.6875 139.3125 C44.160468 137.858789 43.631778 136.405678 43.101562 134.953125 C42.829893 134.207402 42.558223 133.46168 42.27832 132.693359 C40.703999 128.469571 38.987803 124.301961 37.266602 120.13623 C35.4375 115.649408 35.4375 115.649408 35.4375 113.4375 C34.4475 112.9425 34.4475 112.9425 33.4375 112.4375 C32.585938 109.933594 32.585938 109.933594 31.8125 106.875 C31.552109 105.863086 31.291719 104.851172 31.023438 103.808594 C30.830078 103.026133 30.636719 102.243672 30.4375 101.4375 C29.7775 101.4375 29.1175 101.4375 28.4375 101.4375 C28.31375 100.468125 28.19 99.49875 28.0625 98.5 C27.85625 97.489375 27.65 96.47875 27.4375 95.4375 C26.4475 94.9425 26.4475 94.9425 25.4375 94.4375 C24.367188 92.476562 24.367188 92.476562 23.3125 90.0625 C22.959297 89.271016 22.606094 88.479531 22.242188 87.664062 C21.4375 85.4375 21.4375 85.4375 21.4375 82.4375 C20.4475 81.9425 20.4475 81.9425 19.4375 81.4375 C18.476074 79.795166 18.476074 79.795166 17.492188 77.691406 C16.960449 76.559287 16.960449 76.559287 16.417969 75.404297 C16.053164 74.610879 15.688359 73.817461 15.3125 73 C14.939961 72.210449 14.567422 71.420898 14.183594 70.607422 C11.4375 64.707847 11.4375 64.707847 11.4375 62.4375 C10.7775 62.1075 10.1175 61.7775 9.4375 61.4375 C8.183409 59.100741 7.014017 56.767214 5.875 54.375 C2.636405 47.708728 -0.843242 41.236836 -4.592041 34.843506 C-6.745175 31.116723 -8.30389 27.546327 -9.5625 23.4375 C-10.23932 21.808023 -10.926425 20.18277 -11.625 18.5625 C-13.436138 14.118815 -14.208904 10.211043 -14.5625 5.4375 C-3.873335 -0.850244 -3.873335 -0.850244 0 0 Z " fill="#FE5300" transform="translate(460.5625,67.5625)"/>
<path d="M0 0 C2.3125 1.875 2.3125 1.875 4 4 C4 4.99 4 5.98 4 7 C4.66 7.33 5.32 7.66 6 8 C6.666667 10.333333 7.333333 12.666667 8 15 C8.66 15.33 9.32 15.66 10 16 C11.070312 18.179687 11.070312 18.179687 12.125 20.875 C12.478203 21.759297 12.831406 22.643594 13.195312 23.554688 C14 26 14 26 14 29 C14.66 29.33 15.32 29.66 16 30 C17.090411 32.047775 18.099449 34.139334 19.0625 36.25 C19.589727 37.389531 20.116953 38.529063 20.660156 39.703125 C21.806299 42.523371 22.543976 45.004879 23 48 C23.66 48 24.32 48 25 48 C25.12375 48.969375 25.2475 49.93875 25.375 50.9375 C25.58125 51.948125 25.7875 52.95875 26 54 C26.99 54.495 26.99 54.495 28 55 C28.776016 56.63625 29.469073 58.312021 30.125 60 C32.62328 66.234447 35.452845 72.268638 38.408691 78.298828 C41 83.678002 41 83.678002 41 87 C41.99 87.495 41.99 87.495 43 88 C43.894531 89.679688 43.894531 89.679688 44.8125 91.875 C46.324602 95.421976 47.88191 98.937446 49.5 102.4375 C51.154299 106.084128 52.773868 109.740433 54.3125 113.4375 C54.638633 114.219961 54.964766 115.002422 55.300781 115.808594 C56 118 56 118 56 122 C56.66 122.33 57.32 122.66 58 123 C59.501388 130.044975 59.501388 130.044975 57.6875 133.5 C56 135 56 135 54 135 C53.67 135.66 53.34 136.32 53 137 C49.546703 138.726649 46.841692 139.219525 43 139 C42.731875 138.319375 42.46375 137.63875 42.1875 136.9375 C41.375457 134.928762 40.540992 132.928981 39.6875 130.9375 C39.437422 130.353555 39.187344 129.769609 38.929688 129.167969 C38.188604 127.439811 37.442767 125.713693 36.695312 123.988281 C36.01082 122.385332 36.01082 122.385332 35.3125 120.75 C34.875508 119.734219 34.438516 118.718437 33.988281 117.671875 C33 115 33 115 33 112 C32.01 111.505 32.01 111.505 31 111 C30.130371 109.357666 30.130371 109.357666 29.273438 107.253906 C28.964062 106.49916 28.654688 105.744414 28.335938 104.966797 C28.018828 104.173379 27.701719 103.379961 27.375 102.5625 C26.887734 101.378174 26.887734 101.378174 26.390625 100.169922 C24 94.278739 24 94.278739 24 92 C23.01 91.505 23.01 91.505 22 91 C21.21875 89.292969 21.21875 89.292969 20.5 87.1875 C19.511496 84.324063 18.3558 81.706442 17 79 C16.247965 77.351656 15.50243 75.700339 14.761719 74.046875 C12.885506 69.901995 10.948831 65.793709 8.957031 61.703125 C8.440762 60.642227 7.924492 59.581328 7.392578 58.488281 C6.33078 56.312186 5.265621 54.137727 4.197266 51.964844 C-0.119999 43.069649 -0.119999 43.069649 -1.238281 38.796875 C-1.489648 37.873906 -1.741016 36.950938 -2 36 C-2.66 35.67 -3.32 35.34 -4 35 C-4.94209 33.221448 -5.80714 31.40149 -6.625 29.5625 C-7.294023 28.079434 -7.294023 28.079434 -7.976562 26.566406 C-9 24 -9 24 -9 22 C-9.66 21.67 -10.32 21.34 -11 21 C-11.5 18.5 -11.5 18.5 -12 16 C-12.66 15.67 -13.32 15.34 -14 15 C-17.044744 9.02328 -17.044744 9.02328 -16.910156 5.945312 C-15.547321 3.032472 -13.644115 2.468185 -10.75 1.1875 C-9.319141 0.528145 -9.319141 0.528145 -7.859375 -0.144531 C-4.698264 -1.090274 -3.105979 -1.024707 0 0 Z " fill="#FE5300" transform="translate(497,74)"/>
<path d="M0 0 C0.12375 1.134375 0.2475 2.26875 0.375 3.4375 C0.58125 4.613125 0.7875 5.78875 1 7 C1.66 7.33 2.32 7.66 3 8 C3.333333 10.333333 3.666667 12.666667 4 15 C4.66 15.33 5.32 15.66 6 16 C5.67 16.66 5.34 17.32 5 18 C5.66 18.33 6.32 18.66 7 19 C7.333333 21 7.666667 23 8 25 C8.66 25.33 9.32 25.66 10 26 C10.789062 27.722656 10.789062 27.722656 11.625 30.0625 C13.470154 34.90864 15.696725 39.45764 18.0625 44.0625 C20.569366 48.9604 22.736027 53.676201 24.28125 58.972656 C25.436607 62.231518 27.221588 65.108101 29.011719 68.054688 C30 70 30 70 30 73 C30.99 73.495 30.99 73.495 32 74 C35.087557 79.719897 37.458042 85.69199 39 92 C39.66 92 40.32 92 41 92 C41.37125 92.9075 41.7425 93.815 42.125 94.75 C44.112291 99.425413 46.465609 103.912629 48.792969 108.425781 C50 111 50 111 50 113 C50.66 113.33 51.32 113.66 52 114 C52.333333 115.666667 52.666667 117.333333 53 119 C53.66 119.33 54.32 119.66 55 120 C56.324219 121.925781 56.324219 121.925781 57.6875 124.3125 C58.145117 125.092383 58.602734 125.872266 59.074219 126.675781 C60 129 60 129 59.871094 131.152344 C58.183196 134.732504 54.551606 135.722947 51 137 C47.4375 137.8125 47.4375 137.8125 44 137 C36.752484 130.828029 32.972223 120.448648 29 112 C28.636646 111.228335 28.273291 110.45667 27.898926 109.661621 C24.912775 103.310977 24.912775 103.310977 23.613525 100.496094 C22.225793 97.504386 20.83348 94.75022 19 92 C19 91.01 19 90.02 19 89 C18.01 88.505 18.01 88.505 17 88 C15.962646 86.129883 15.962646 86.129883 14.871094 83.703125 C14.475996 82.826563 14.080898 81.95 13.673828 81.046875 C13.26584 80.123906 12.857852 79.200938 12.4375 78.25 C12.025645 77.3425 11.613789 76.435 11.189453 75.5 C8.110715 68.606852 8.110715 68.606852 7.500244 65.260742 C7.335164 64.514697 7.170083 63.768652 7 63 C6.34 62.67 5.68 62.34 5 62 C4.289913 60.351364 3.634724 58.679091 3 57 C2.43528 55.773615 1.858894 54.55256 1.273438 53.335938 C0.809375 52.365273 0.809375 52.365273 0.335938 51.375 C-0.309204 50.032266 -0.957692 48.691134 -1.609375 47.351562 C-3.01995 44.388171 -4 42.324572 -4 39 C-4.66 38.67 -5.32 38.34 -6 38 C-7.769026 34.422395 -9.120643 30.657173 -10.5625 26.9375 C-10.974355 25.912051 -11.386211 24.886602 -11.810547 23.830078 C-14.019552 18.179219 -15.754828 13.087279 -16 7 C-13.068984 2.203791 -5.401123 -1.800374 0 0 Z " fill="#FE5300" transform="translate(39,262)"/>
<path d="M0 0 C7.566714 7.31449 12.39861 18.989751 15 29 C15.843047 28.639062 16.686094 28.278125 17.554688 27.90625 C18.650391 27.442188 19.746094 26.978125 20.875 26.5 C21.965547 26.035938 23.056094 25.571875 24.179688 25.09375 C27 24 27 24 29 24 C29.33 23.34 29.66 22.68 30 22 C33.795878 20.481649 37.987702 20.933128 42 21 C47.740319 31.373576 47.740319 31.373576 47 37 C40.375 40 40.375 40 37 40 C36.505 40.99 36.505 40.99 36 42 C33.714844 43.070313 33.714844 43.070313 30.9375 44.125 C30.018398 44.478203 29.099297 44.831406 28.152344 45.195312 C27.086934 45.593633 27.086934 45.593633 26 46 C26.50942 49.990454 27.136278 53.931978 27.9375 57.875 C28.167598 59.01582 28.167598 59.01582 28.402344 60.179688 C28.59957 60.780391 28.796797 61.381094 29 62 C29.99 62.495 29.99 62.495 31 63 C31.667969 65.179687 31.667969 65.179687 32.1875 67.875 C32.36668 68.759297 32.545859 69.643594 32.730469 70.554688 C33 73 33 73 32 76 C29.785156 77.167969 29.785156 77.167969 27.0625 78.1875 C26.166602 78.53168 25.270703 78.875859 24.347656 79.230469 C22 80 22 80 20 80 C20 79.34 20 78.68 20 78 C19.01 77.505 19.01 77.505 18 77 C17.105469 74.917969 17.105469 74.917969 16.1875 72.1875 C14.329439 66.830675 12.20002 61.637997 9.953125 56.433594 C9 54 9 54 9 52 C8.34 51.67 7.68 51.34 7 51 C5.964844 48.855469 5.964844 48.855469 4.9375 46.1875 C4.595898 45.314805 4.254297 44.442109 3.902344 43.542969 C3 41 3 41 2.503906 38.738281 C2.337617 38.164648 2.171328 37.591016 2 37 C1.34 36.67 0.68 36.34 0 36 C-0.731194 34.360617 -1.386552 32.686981 -2 31 C-4.732431 24.000621 -7.711027 17.572078 -11.707031 11.203125 C-13.249655 8.574605 -14.225323 5.943774 -15 3 C-14.195625 2.87625 -13.39125 2.7525 -12.5625 2.625 C-11.716875 2.41875 -10.87125 2.2125 -10 2 C-9.67 1.34 -9.34 0.68 -9 0 C-5.72031 -1.28845 -3.258462 -1.318901 0 0 Z " fill="#FE5300" transform="translate(532,94)"/>
<path d="M0 0 C1.454062 0.030937 1.454062 0.030937 2.9375 0.0625 C4.110932 2.663806 5.276425 5.268185 6.4375 7.875 C6.771367 8.612988 7.105234 9.350977 7.449219 10.111328 C7.765039 10.823535 8.080859 11.535742 8.40625 12.269531 C8.846143 13.251434 8.846143 13.251434 9.294922 14.253174 C9.9375 16.0625 9.9375 16.0625 9.9375 19.0625 C10.5975 19.3925 11.2575 19.7225 11.9375 20.0625 C12.761719 21.820312 12.761719 21.820312 13.625 24.1875 C15.640015 29.472163 17.995694 34.54096 20.475342 39.619629 C22.440121 43.72218 23.800987 47.679611 24.9375 52.0625 C25.5975 52.0625 26.2575 52.0625 26.9375 52.0625 C27.119258 52.911348 27.119258 52.911348 27.304688 53.777344 C27.556055 54.877559 27.556055 54.877559 27.8125 56 C27.974922 56.730898 28.137344 57.461797 28.304688 58.214844 C28.767115 60.269503 28.767115 60.269503 30.9375 61.0625 C32.04274 63.218577 33.074501 65.412742 34.0625 67.625 C34.601328 68.822539 35.140156 70.020078 35.695312 71.253906 C36.105234 72.180742 36.515156 73.107578 36.9375 74.0625 C35.386868 75.101273 33.821403 76.117926 32.25 77.125 C31.379883 77.693477 30.509766 78.261953 29.613281 78.847656 C26.475492 80.272258 25.149131 80.19537 21.9375 79.0625 C18.9375 75.855603 18.9375 75.855603 18.9375 73.0625 C17.9475 72.5675 17.9475 72.5675 16.9375 72.0625 C15.867188 70.101563 15.867188 70.101563 14.8125 67.6875 C14.459297 66.896016 14.106094 66.104531 13.742188 65.289062 C12.9375 63.0625 12.9375 63.0625 12.9375 60.0625 C11.9475 59.5675 11.9475 59.5675 10.9375 59.0625 C10.3125 57 10.3125 57 9.9375 55.0625 C8.32875 55.5575 8.32875 55.5575 6.6875 56.0625 C2.9375 57.0625 2.9375 57.0625 -1.0625 57.0625 C-1.3925 57.7225 -1.7225 58.3825 -2.0625 59.0625 C-4.390625 60.167969 -4.390625 60.167969 -7.3125 61.25 C-8.266406 61.614805 -9.220313 61.979609 -10.203125 62.355469 C-13.341708 63.131539 -15.035421 63.175016 -18.0625 62.0625 C-20.907687 58.720016 -21.95224 54.604609 -22.8125 50.375 C-21.999617 46.784768 -21.797266 46.407425 -18.9375 44.4375 C-13.885247 41.679243 -8.397113 39.951923 -2.941406 38.175781 C0.055027 37.388217 0.055027 37.388217 0.9375 35.0625 C0.2775 34.7325 -0.3825 34.4025 -1.0625 34.0625 C-2.119731 31.509242 -3.084471 28.978608 -4 26.375 C-5.417354 22.391183 -6.810217 18.554745 -8.742188 14.785156 C-10.385626 11.396172 -10.285574 8.780403 -10.0625 5.0625 C-9.258125 4.77375 -8.45375 4.485 -7.625 4.1875 C-4.929853 3.329874 -4.929853 3.329874 -4.0625 1.0625 C-3.0625 0.0625 -3.0625 0.0625 0 0 Z " fill="#FE5300" transform="translate(23.0625,297.9375)"/>
<path d="M0 0 C-0.33 6.93 -0.66 13.86 -1 21 C-1.66 21 -2.32 21 -3 21 C-2.505 22.485 -2.505 22.485 -2 24 C-2.66 24 -3.32 24 -4 24 C-4 25.32 -4 26.64 -4 28 C-6.97 28.66 -9.94 29.32 -13 30 C-12.34 31.32 -11.68 32.64 -11 34 C-10.875 36.75 -10.875 36.75 -11 39 C-14.465 39.495 -14.465 39.495 -18 40 C-18 41.32 -18 42.64 -18 44 C-17.34 44.33 -16.68 44.66 -16 45 C-15.666667 47 -15.333333 49 -15 51 C-14.34 51.33 -13.68 51.66 -13 52 C-12.633379 53.324567 -12.307001 54.660359 -12 56 C-9.566418 61.840596 -7.359374 66.378801 -2 70 C-1.01 71.485 -1.01 71.485 0 73 C-4.374934 73.374994 -6.368313 72.364819 -10 70 C-10.586523 69.767969 -11.173047 69.535937 -11.777344 69.296875 C-18.832485 66.446877 -22.57297 60.974887 -27 55 C-27.608438 54.214961 -28.216875 53.429922 -28.84375 52.621094 C-36.454918 42.397911 -42.452887 30.523304 -45 18 C-42.652692 16.673786 -40.298357 15.364198 -37.9375 14.0625 C-37.280723 13.689316 -36.623945 13.316133 -35.947266 12.931641 C-31.58226 10.544864 -27.995798 9.604587 -23 9 C-22.67 8.34 -22.34 7.68 -22 7 C-20.156267 6.118847 -18.273452 5.318583 -16.375 4.5625 C-12.855583 3.152222 -9.372924 1.728198 -5.9375 0.125 C-3 -1 -3 -1 0 0 Z " fill="#FE5300" transform="translate(216,281)"/>
<path d="M0 0 C-0.519492 0.230742 -1.038984 0.461484 -1.574219 0.699219 C-6.282751 2.901175 -9.344125 5.247918 -13 9 C-17.404471 11.450511 -21.919051 13.126316 -26.6875 14.6875 C-27.350723 14.912441 -28.013945 15.137383 -28.697266 15.369141 C-31.588902 16.327195 -33.932786 17 -37 17 C-37.33 17.66 -37.66 18.32 -38 19 C-40.314062 19.730756 -42.648289 20.401383 -45 21 C-45 21.66 -45 22.32 -45 23 C-47.125 24.4375 -47.125 24.4375 -50 26 C-50.99 26.5775 -51.98 27.155 -53 27.75 C-56 29 -56 29 -58.75 29 C-61 28 -61 28 -62.375 25.6875 C-63.012394 22.946707 -62.963497 21.601443 -62 19 C-61.34 19 -60.68 19 -60 19 C-60 18.34 -60 17.68 -60 17 C-59.34 17 -58.68 17 -58 17 C-58 16.34 -58 15.68 -58 15 C-57.01 14.34 -56.02 13.68 -55 13 C-55.33 11.02 -55.66 9.04 -56 7 C-58.31 7 -60.62 7 -63 7 C-62 5 -62 5 -60.073242 4.329834 C-59.239541 4.1372 -58.40584 3.944565 -57.546875 3.746094 C-56.623584 3.531787 -55.700293 3.31748 -54.749023 3.09668 C-53.759346 2.87915 -52.769668 2.661621 -51.75 2.4375 C-50.747432 2.213525 -49.744863 1.989551 -48.711914 1.758789 C-41.422222 0.184103 -34.451808 -0.691282 -27 -1 C-25.332133 -1.176507 -23.665346 -1.363613 -22 -1.5625 C-5.329447 -3.256884 -5.329447 -3.256884 0 0 Z " fill="#FE5300" transform="translate(294,24)"/>
<path d="M0 0 C0.33 0 0.66 0 1 0 C1.365175 6.573155 0.136197 11.794855 -2 18 C-2.66 18 -3.32 18 -4 18 C-4 19.32 -4 20.64 -4 22 C-4.66 22 -5.32 22 -6 22 C-6 23.32 -6 24.64 -6 26 C-6.66 26 -7.32 26 -8 26 C-8.33 27.65 -8.66 29.3 -9 31 C-9.66 31 -10.32 31 -11 31 C-11.340312 31.928125 -11.340312 31.928125 -11.6875 32.875 C-13.379298 35.614102 -14.992442 36.050245 -18 37 C-19.738016 33.523967 -18.738308 29.717219 -18 26 C-15.794521 21.39726 -15.794521 21.39726 -13 20 C-13.020625 18.865625 -13.04125 17.73125 -13.0625 16.5625 C-12.662416 11.855125 -9.903656 9.560741 -6.5 6.625 C-5.499687 5.792266 -4.499375 4.959531 -3.46875 4.101562 C-0.957872 2.241733 -0.957872 2.241733 0 0 Z " fill="#FD5300" transform="translate(444,231)"/>
<path d="M0 0 C0.683203 0.488555 1.366406 0.977109 2.070312 1.480469 C1.702651 4.222863 1.221855 5.332117 -0.785156 7.296875 C-5.028837 10.474304 -9.06066 13.358072 -13.929688 15.480469 C-15.249687 14.490469 -16.569687 13.500469 -17.929688 12.480469 C-17.365973 9.210927 -16.430065 7.65471 -13.929688 5.480469 C-14.589687 4.820469 -15.249687 4.160469 -15.929688 3.480469 C-18.239688 4.140469 -20.549688 4.800469 -22.929688 5.480469 C-23.259688 3.830469 -23.589687 2.180469 -23.929688 0.480469 C-16.75577 -2.252452 -6.955131 -3.607395 0 0 Z " fill="#FE5300" transform="translate(216.9296875,42.51953125)"/>
<path d="M0 0 C8.633372 2.532456 8.633372 2.532456 12.375 5.1875 C14.87979 7.284095 14.87979 7.284095 18 7 C18 7.66 18 8.32 18 9 C20.475 9.495 20.475 9.495 23 10 C22.67 10.99 22.34 11.98 22 13 C19.03 13 16.06 13 13 13 C13 11.68 13 10.36 13 9 C10.115622 10.292997 8.127806 11.659414 6 14 C5.34 13.67 4.68 13.34 4 13 C4.99 12.67 5.98 12.34 7 12 C5.792913 8.370418 5.792913 8.370418 3 6 C-0.62536 5.749642 -0.62536 5.749642 -4 6 C-3.67 4.68 -3.34 3.36 -3 2 C-2.01 2 -1.02 2 0 2 C0 1.34 0 0.68 0 0 Z " fill="#FE5300" transform="translate(128,154)"/>
<path d="M0 0 C3.812388 1.270796 4.027197 2.606779 6 6 C7.295796 7.369842 8.619927 8.715105 10 10 C9.34 11.32 8.68 12.64 8 14 C5.69 14 3.38 14 1 14 C1 12.02 1 10.04 1 8 C0.01 7.67 -0.98 7.34 -2 7 C-2.33 5.35 -2.66 3.7 -3 2 C-2.01 1.34 -1.02 0.68 0 0 Z " fill="#FD5300" transform="translate(307,53)"/>
<path d="M0 0 C0.66 0.66 1.32 1.32 2 2 C-1.983936 3.845665 -5.443767 4.360228 -9.8125 4.625 C-11.554668 4.737148 -11.554668 4.737148 -13.332031 4.851562 C-14.652676 4.925039 -14.652676 4.925039 -16 5 C-16 4.34 -16 3.68 -16 3 C-16.66 2.67 -17.32 2.34 -18 2 C-12.497987 -1.668009 -6.297025 -1.385345 0 0 Z " fill="#FD5300" transform="translate(291,41)"/>
<path d="M0 0 C0.33 1.65 0.66 3.3 1 5 C-2.227916 7.151944 -3.284008 7.200864 -7 7 C-7.33 5.68 -7.66 4.36 -8 3 C-2.25 0 -2.25 0 0 0 Z " fill="#FF5400" transform="translate(302,59)"/>
<path d="M0 0 C0.66 0 1.32 0 2 0 C2.33 1.98 2.66 3.96 3 6 C1.68 5.34 0.36 4.68 -1 4 C-0.67 2.68 -0.34 1.36 0 0 Z " fill="#FF5400" transform="translate(336,88)"/>
<path d="M0 0 C2 1 2 1 2 1 Z " fill="#FFFFFF" transform="translate(216,279)"/>
<path d="" fill="#9A4014" transform="translate(0,0)"/>
<path d="" fill="#9A4013" transform="translate(0,0)"/>
<path d="" fill="#FFFFFF" transform="translate(0,0)"/>
<path d="" fill="#FFFFFF" transform="translate(0,0)"/>
<path d="" fill="#92390F" transform="translate(0,0)"/>
<path d="" fill="#FFFFFF" transform="translate(0,0)"/>
<path d="" fill="#FFFFFF" transform="translate(0,0)"/>
<path d="" fill="#993D10" transform="translate(0,0)"/>
<path d="" fill="#F6F2F2" transform="translate(0,0)"/>
<path d="" fill="#FFFFFF" transform="translate(0,0)"/>
<path d="" fill="#9B3B0C" transform="translate(0,0)"/>
</svg>
